<svg width="118" height="46" viewBox="0 0 118 46" fill="none" xmlns="http://www.w3.org/2000/svg">
<path d="M102.996 39.1548H98.5438L98.4637 39.0166L98.2164 38.5879L97.7507 37.7814L97.6604 37.6243L97.1036 36.66L96.5468 35.6964L96.5366 35.6784L95.9909 34.7329L95.4341 33.7694L94.8773 32.805L94.6088 32.3393L94.3206 31.8415L93.7638 30.8771L93.2078 29.9136L92.6809 29.0003V28.9493H92.651L92.0951 27.9857L91.5391 27.0222L90.9823 26.0579L90.753 25.6605L90.4255 25.0935L89.8688 24.13L89.312 25.0935L88.8251 25.9369L88.756 26.0579L88.1993 27.0222L87.6425 27.9857L87.0865 28.9493L86.8973 29.2767L86.5297 29.9128L85.9738 30.8771L85.417 31.8415L84.9694 32.6158L84.8602 32.805L84.3042 33.7686L83.7475 34.7329L83.1907 35.6964L83.0415 35.9548L82.6347 36.66L82.078 37.6235L81.9877 37.7814L81.5212 38.5879L81.1937 39.1548H76.7427L77.0702 38.5879L77.2587 38.2612L77.5359 37.7814L77.6262 37.6243L78.183 36.66L78.7389 35.6972V35.6964L79.1865 34.9221L79.2957 34.7329L79.8525 33.7686L80.4085 32.805L80.9652 31.8415V31.8407L81.1144 31.5823L81.5212 30.8771L82.078 29.9136L82.6347 28.9493L83.0415 28.2441L83.1907 27.9857L83.7475 27.0222L84.3042 26.0579L84.861 25.0935L84.9694 24.9051L85.4178 24.13L85.9738 23.1657L86.5297 22.2021L86.8973 21.5652L87.0865 21.2378L87.6425 20.2742L88.1993 19.3107L88.5267 18.7429L88.756 18.3464L88.8251 18.2262L89.3128 17.3828H90.4255L90.753 17.9498L90.9823 18.3464L91.2116 18.7429L91.5391 19.3107L92.0951 20.2742L92.651 21.2378L92.6809 21.288L93.2078 22.2021L93.7646 23.1657L94.3213 24.13L94.6088 24.6279L94.8773 25.0935L95.4341 26.0579L95.9909 27.0222L96.5366 27.9669V28.003L96.5468 27.9857L97.1036 28.9493L97.6604 29.9136L98.2164 30.8771L98.4637 31.3051L98.7731 31.8407L99.3291 32.805L99.8859 33.7686L100.392 34.6442V34.7329H100.443L100.999 35.6964L101.555 36.66L102.112 37.6243L102.202 37.7814L102.319 37.984L102.669 38.5879L102.996 39.1548Z" fill="#1B420B"/>
<path d="M103.049 39.1858H98.5257L92.6502 29.0085V28.9802H92.6338L89.8688 24.1916L81.2118 39.1858H76.6901L89.2955 17.3525H90.4436L100.423 34.6367V34.7026H100.461L103.049 39.1858ZM98.5611 39.1246H102.943L100.425 34.7639H100.361V34.6532L96.5468 28.0473L96.506 28.1188V27.9751L90.4075 17.413H89.3301L76.7953 39.1246H81.1765L89.8688 24.0691L92.6691 28.9182H92.7115V28.9912L98.5611 39.1246Z" fill="#1B420B"/>
<path d="M73.2388 18.4108C74.3735 18.8506 75.4211 19.5204 76.3831 20.4196L74.2361 22.9042C73.4791 22.2909 72.7228 21.8409 71.9666 21.5543C71.2096 21.2685 70.4023 21.1248 69.5432 21.1248C68.6025 21.1248 67.8509 21.3242 67.2887 21.7231C66.7256 22.1221 66.4453 22.689 66.4453 23.4256C66.4453 23.9369 66.5631 24.3562 66.7979 24.6829C67.0327 25.0103 67.4465 25.3166 68.0402 25.6032C68.6331 25.8899 69.5228 26.2165 70.7086 26.5848C72.8147 27.2594 74.3892 28.0934 75.4321 29.0844C76.4749 30.0762 76.9964 31.4921 76.9964 33.3328C76.9964 34.6419 76.6689 35.7915 76.0148 36.7833C75.3598 37.7751 74.4088 38.5526 73.1618 39.1141C71.914 39.6763 70.4518 39.9574 68.776 39.9574C67.0994 39.9574 65.6058 39.6912 64.2975 39.1604C62.9885 38.6287 61.8639 37.9031 60.9232 36.9828L63.2233 34.4369C64.0407 35.1327 64.8896 35.6588 65.7691 36.0169C66.6479 36.375 67.6099 36.554 68.6527 36.554C69.7568 36.554 70.6411 36.2988 71.3062 35.7876C71.9705 35.2764 72.3027 34.561 72.3027 33.6406C72.3027 33.0681 72.1849 32.593 71.9501 32.2145C71.7145 31.836 71.3109 31.4937 70.7384 31.1874C70.166 30.8803 69.3375 30.5639 68.2538 30.2364C65.9427 29.521 64.292 28.6619 63.3002 27.6599C62.3084 26.6579 61.8129 25.3496 61.8129 23.7335C61.8129 22.5477 62.1294 21.4993 62.7639 20.5892C63.3976 19.6798 64.2771 18.9786 65.4016 18.4878C66.5262 17.997 67.8038 17.752 69.2354 17.752C70.7698 17.7512 72.104 17.9718 73.2388 18.4108Z" fill="#1B420B"/>
<path d="M114.864 18.214C115.848 18.5862 116.811 19.154 117.754 19.9181L115.51 22.4812C114.28 21.4965 112.989 21.0033 111.637 21.0033C110.12 21.0033 108.917 21.6119 108.025 22.8283C107.133 24.0447 106.687 25.9498 106.687 28.5436C106.687 31.077 107.133 32.9522 108.025 34.1686C108.916 35.385 110.13 35.9936 111.667 35.9936C112.467 35.9936 113.194 35.8484 113.85 35.5562C114.505 35.2649 115.192 34.8471 115.91 34.3045L118 36.8684C117.241 37.6325 116.304 38.2607 115.187 38.7531C114.07 39.2455 112.835 39.4921 111.483 39.4921C109.577 39.4921 107.907 39.0696 106.472 38.2254C105.037 37.3812 103.921 36.1397 103.121 34.5008C102.322 32.8619 101.922 30.8767 101.922 28.5444C101.922 26.2726 102.332 24.3172 103.152 22.6783C103.971 21.0394 105.099 19.7932 106.533 18.9388C107.967 18.0844 109.586 17.6572 111.39 17.6572C112.723 17.6564 113.88 17.8426 114.864 18.214Z" fill="#1B420B"/>
<path d="M7.15395 10.3235L7.12489 10.3385L7.09583 10.3534L6.89716 10.0298L6.927 10.0149L6.95527 10L7.1241 10.2748L7.15395 10.3235Z" fill="#DBA514"/>
<path d="M23.9824 14.0465L23.9598 14.0106L24.0182 13.9795L24.04 14.0161L23.9824 14.0465Z" fill="#DBA514"/>
<path d="M1.85324 42.1846L0.833939 43.8509L0.116974 45.0218H9.8655L10.5825 43.8509L11.3465 42.6031L11.6018 42.1846H1.85324Z" fill="#DBA514"/>
<path d="M1.81322 42.123L0 45.0851H9.9048L11.718 42.123H1.81322ZM0.232444 44.9595L1.89332 42.2487H11.4864L9.82705 44.9595H0.232444Z" fill="#DBA514"/>
<path d="M32.4911 19.9817L32.4267 19.8773L32.4856 19.8467L32.5492 19.9503L32.4911 19.9817Z" fill="#1B420B"/>
<path d="M30.0819 43.8519H27.6452L28.2341 44.8147V45.0228H24.4915L25.2068 43.8519L26.2285 42.1855H31.1028L30.0819 43.8519Z" fill="#1B420B"/>
<path d="M28.2679 45.0555H24.4341L26.2089 42.1562H31.1609L30.1015 43.8854H27.7032L28.2679 44.8082V45.0555ZM24.5495 44.9927H28.2003V44.8246L27.5878 43.8218H30.063L31.0462 42.2183H26.2489L24.5495 44.9927Z" fill="#1B420B"/>
<path d="M36.6783 42.1846V45.0218H29.3665L30.0819 43.8509L31.1028 42.1846H32.4558V43.8509H34.957L35.9778 42.1846H36.6783Z" fill="#1B420B"/>
<path d="M36.7458 45.0851H29.2503L31.0635 42.123H32.5234V43.7894H34.9177L35.9386 42.123H36.7458V45.0851ZM29.4828 44.9595H36.6116V42.2479H36.0179L34.997 43.9143H32.3891V42.2479H31.1428L29.4828 44.9595Z" fill="#1B420B"/>
<path d="M35.9778 42.1846L34.9569 43.8509H32.5202L32.4558 43.7457V42.1846H35.9778Z" fill="#1B420B"/>
<path d="M34.9962 43.9151H32.481L32.3883 43.7635V42.123H36.0941L34.9962 43.9151ZM32.5595 43.7894H34.9177L35.8616 42.2487H32.5234V43.7305L32.5595 43.7894Z" fill="#1B420B"/>
<path d="M30.0819 43.8516L29.3665 45.0224H28.3606L28.2341 44.8143L27.6452 43.8516H30.0819Z" fill="#1B420B"/>
<path d="M29.4058 45.0848H28.3213L27.5289 43.7891H30.1973L29.4058 45.0848ZM28.3998 44.9591H29.3272L29.9665 43.9139H27.7614L28.3998 44.9591Z" fill="#1B420B"/>
<path d="M33.7398 21.957L32.5202 23.9469H32.4558V24.0522L31.3015 25.9384L30.0835 27.9283L28.8647 29.9198L28.2341 30.9477L27.6452 31.9097L26.4264 33.8996L25.2084 31.9097H22.7701L23.9897 29.9182L24.0117 29.9559V29.8813L25.2069 27.9283L26.4264 25.9368L27.6452 23.9469L28.2341 22.9857L28.8631 21.957L28.2341 20.9283L27.6452 19.9671L26.4264 17.9756L25.2069 15.9857L24.0117 14.0327V13.9573L23.9897 13.9958L22.7701 12.0043L21.5514 10.0144L20.3318 8.02293L19.7908 7.13948L19.1146 6.03302L17.8951 4.04311L17.1781 2.87146L16.6763 2.05241L15.5691 0.243901V0.0625H20.3318L21.5514 2.05241L22.0516 2.87146L22.7701 4.04311L23.9897 6.03302V6.03459L24.0117 6.07149L25.2069 8.02293L26.4264 10.0144L27.6452 12.0043L28.2341 12.9671L28.8631 13.9942V13.9958L31.3015 17.9756L32.4558 19.8634V19.9671H32.5202L33.7398 21.957Z" fill="#1B420B"/>
<path d="M26.4264 34.0264L25.1691 31.9721H22.6547L28.7854 21.9566L15.5015 0.26071V0H20.3718L32.5241 19.8473V19.9054H32.5602L33.8175 21.9581L32.5602 24.0109H32.5241V24.0698L26.4264 34.0264ZM22.8863 31.8472H25.2477L26.4264 33.7735L32.389 24.0368V23.8852H32.4817L33.6628 21.9581L32.4817 20.031H32.389V19.881L20.2925 0.124858H15.6358V0.226944L23.9873 13.8666L24.0784 13.7103V14.0158L28.9401 21.9566L24.0784 29.8974V30.2028L23.9873 30.0466L22.8863 31.8472Z" fill="#1B420B"/>
<path d="M26.4264 33.8991L25.2068 35.8898L24.0116 37.8436L23.9896 37.8797L22.7701 39.8704L21.5513 41.8611L20.3334 43.851L19.7907 44.7368L19.6164 45.0219H14.7398L15.4567 43.851H15.569V43.6696L16.6763 41.8603L17.8951 39.8704L19.113 37.8797L19.7907 36.774L20.3318 35.8898L21.5513 33.8991L22.7701 31.9092H25.2084L26.4264 33.8991Z" fill="#1B420B"/>
<path d="M19.6556 45.0852H14.6235L15.4175 43.7895H15.5007V43.6544L22.7308 31.8477H25.2477L26.5033 33.9004L19.6556 45.0852ZM14.856 44.9596H19.5771L26.3486 33.8996L25.1691 31.9725H22.8093L15.6358 43.6866V43.9143H15.496L14.856 44.9596Z" fill="#1B420B"/>
<path d="M36.6783 0.0625V2.87146H26.9266L26.4264 2.05319L25.2068 0.0625H32.4558V0.166158L32.5202 0.0625H36.6783Z" fill="#1B420B"/>
<path d="M36.7121 2.90304H26.907L26.3966 2.06906L25.1488 0.03125H32.4896V0.0485288L32.5006 0.03125H36.7121V2.90304ZM26.9463 2.84021H36.6446V0.0932858H32.5399L32.4229 0.283328V0.0932858H25.2658L26.9463 2.84021Z" fill="#1B420B"/>
<path d="M7.12409 10.2744V10.3372L7.12566 10.3388L7.15394 10.3239L7.12409 10.2744ZM1.89017 42.1232L1.85248 42.1845H11.6018L11.6395 42.1232H1.89017Z" fill="#DBA514"/>
<path d="M23.9889 21.9562L22.7709 23.9461L21.5506 25.9368L20.3514 27.8961L20.3326 27.9275L19.79 28.811L19.7562 28.8667L19.113 29.9175V29.9182L17.8958 31.9081L16.6763 33.8981L15.5683 35.7081L15.4568 35.8895L14.2396 37.8787V37.8795L11.8013 41.8601L11.6395 42.1231H1.89018L2.05116 41.8608L2.90319 40.4701L3.27071 39.8694L4.48868 37.8795L5.70745 35.8895L6.92542 33.8981L7.1241 33.5761L8.14497 31.9081L9.36452 29.9175L10.5833 27.9275L11.3466 26.6805L11.8013 25.9368L13.02 23.9461L14.2396 21.9562L13.02 19.9655L11.8013 17.9748L11.3466 17.2335L10.5817 15.9849L9.36452 13.995L8.14497 12.0035L7.12489 10.3379L7.15394 10.323L7.1241 10.2743V9.69009L6.92542 10.0136L5.70745 8.02214L4.48868 6.03223L3.27071 4.04311L2.90319 3.44236L2.55296 2.87068L2.05116 2.05084L0.832397 0.0625H10.5833L11.3466 1.30875L11.8013 2.05084L12.3038 2.87068L13.02 4.04311L14.2396 6.03223L15.4568 8.02214L15.5683 8.20433L16.6763 10.0136L17.8958 12.0035L19.1146 13.995L19.79 15.1007L20.3342 15.9849L21.5506 17.9748L22.7709 19.9655L23.9889 21.9562Z" fill="#DBA514"/>
<path d="M20.3514 27.8965L20.3326 27.9279L19.7899 28.8121L19.7562 28.8671V28.9307L20.3907 27.8965H20.3514Z" fill="#DBA514"/>
<path d="M7.12412 9.68945V10.2737L6.95529 9.99886L6.92702 10.0138L6.92545 10.013L7.12412 9.68945Z" fill="#DBA514"/>
<path d="M7.13981 10.3296L6.94978 10.0202L6.92386 10.0335L6.90659 10.0162L6.91208 10.0044L7.13903 9.63379V10.3296H7.13981ZM6.96312 9.98167L7.1084 10.218V9.74452L6.96312 9.98167Z" fill="#DBA514"/>
<path d="M67.194 44.2355C67.1455 44.2355 67.1059 44.2202 67.0752 44.1895C67.0446 44.1563 67.0292 44.1155 67.0292 44.0669C67.0292 44.0107 67.0471 43.9635 67.0829 43.9252C67.1212 43.8869 67.1684 43.8677 67.2246 43.8677C67.2757 43.8677 67.3166 43.8843 67.3472 43.9175C67.3779 43.9482 67.3932 43.9878 67.3932 44.0363C67.3932 44.0925 67.374 44.1397 67.3357 44.178C67.2974 44.2163 67.2502 44.2355 67.194 44.2355ZM67.9909 44.2355C67.9423 44.2355 67.9027 44.2202 67.8721 44.1895C67.8414 44.1563 67.8261 44.1155 67.8261 44.0669C67.8261 44.0107 67.844 43.9635 67.8798 43.9252C67.9181 43.8869 67.9653 43.8677 68.0215 43.8677C68.0726 43.8677 68.1134 43.8843 68.1441 43.9175C68.1747 43.9482 68.1901 43.9878 68.1901 44.0363C68.1901 44.0925 68.1709 44.1397 68.1326 44.178C68.0943 44.2163 68.047 44.2355 67.9909 44.2355ZM68.7877 44.2355C68.7392 44.2355 68.6996 44.2202 68.669 44.1895C68.6383 44.1563 68.623 44.1155 68.623 44.0669C68.623 44.0107 68.6409 43.9635 68.6766 43.9252C68.7149 43.8869 68.7622 43.8677 68.8184 43.8677C68.8695 43.8677 68.9103 43.8843 68.941 43.9175C68.9716 43.9482 68.9869 43.9878 68.9869 44.0363C68.9869 44.0925 68.9678 44.1397 68.9295 44.178C68.8912 44.2163 68.8439 44.2355 68.7877 44.2355ZM70.5166 41.5308C70.2765 41.5308 70.1412 41.6445 70.1105 41.8718L70.0646 42.1898H70.5894L70.5396 42.3698H70.0416L69.7964 44.1282C69.7708 44.3019 69.7325 44.4398 69.6815 44.542C69.6304 44.6441 69.564 44.7259 69.4822 44.7872C69.4031 44.8485 69.292 44.911 69.1489 44.9749L69.08 44.8025C69.1847 44.754 69.2677 44.7054 69.329 44.6569C69.3903 44.6084 69.4414 44.542 69.4822 44.4577C69.5231 44.376 69.5538 44.2636 69.5742 44.1206L69.8194 42.3698H69.4708L69.4976 42.1898H69.8462L69.8922 41.8565C69.9126 41.6981 69.9777 41.573 70.0875 41.481C70.1974 41.3891 70.3378 41.3431 70.509 41.3431C70.5932 41.3431 70.6711 41.3546 70.7426 41.3776C70.8142 41.4006 70.8869 41.435 70.961 41.481L70.8729 41.6343C70.7554 41.5653 70.6366 41.5308 70.5166 41.5308ZM71.4191 44.2355C71.1892 44.2355 71.0104 44.164 70.8827 44.021C70.7576 43.8779 70.695 43.6787 70.695 43.4233C70.695 43.2318 70.7282 43.039 70.7946 42.8449C70.861 42.6482 70.9683 42.4835 71.1164 42.3507C71.2671 42.2153 71.4599 42.1476 71.6949 42.1476C71.9273 42.1476 72.1061 42.2178 72.2312 42.3583C72.3564 42.4988 72.419 42.6967 72.419 42.9521C72.419 43.1411 72.3858 43.3339 72.3194 43.5306C72.2555 43.7273 72.1482 43.8945 71.9976 44.0325C71.8469 44.1678 71.654 44.2355 71.4191 44.2355ZM71.4267 44.0478C71.6081 44.0478 71.7549 43.989 71.8673 43.8716C71.9822 43.7541 72.064 43.611 72.1125 43.4425C72.161 43.2714 72.1853 43.1028 72.1853 42.9368C72.1853 42.7376 72.1431 42.5869 72.0589 42.4847C71.9746 42.3826 71.852 42.3315 71.6911 42.3315C71.5072 42.3315 71.3578 42.3915 71.2429 42.5116C71.1279 42.629 71.0462 42.7733 70.9977 42.9445C70.9491 43.1156 70.9249 43.2816 70.9249 43.4425C70.9249 43.6417 70.9683 43.7924 71.0551 43.8945C71.142 43.9967 71.2658 44.0478 71.4267 44.0478ZM73.6423 42.1476C73.8799 42.1476 74.0855 42.223 74.2591 42.3736L74.1404 42.5077C74.0637 42.449 73.9859 42.4056 73.9067 42.3775C73.8275 42.3494 73.7394 42.3353 73.6423 42.3353C73.4993 42.3353 73.3844 42.366 73.2975 42.4273C73.2107 42.486 73.1673 42.5677 73.1673 42.6725C73.1673 42.7593 73.1992 42.8308 73.2631 42.887C73.3295 42.9406 73.4444 42.9917 73.6079 43.0402C73.8045 43.1015 73.9463 43.1769 74.0331 43.2663C74.1225 43.3557 74.1672 43.4731 74.1672 43.6187C74.1672 43.8052 74.0969 43.9546 73.9565 44.0669C73.816 44.1793 73.627 44.2355 73.3895 44.2355C73.2337 44.2355 73.0983 44.2112 72.9834 44.1627C72.871 44.1142 72.7702 44.0478 72.6808 43.9635L72.8072 43.8332C72.894 43.9048 72.9834 43.9584 73.0754 43.9941C73.1673 44.0299 73.272 44.0478 73.3895 44.0478C73.5632 44.0478 73.6972 44.0107 73.7917 43.9367C73.8888 43.8601 73.9373 43.7605 73.9373 43.6379C73.9373 43.5306 73.9041 43.4476 73.8377 43.3889C73.7739 43.3301 73.6538 43.2726 73.4776 43.2165C73.2809 43.1552 73.1418 43.0836 73.06 43.0019C72.9809 42.9176 72.9413 42.8116 72.9413 42.684C72.9413 42.5869 72.9694 42.4975 73.0255 42.4158C73.0817 42.3341 73.1622 42.2689 73.2669 42.2204C73.3742 42.1719 73.4993 42.1476 73.6423 42.1476ZM74.9638 43.6992C74.9587 43.7451 74.9561 43.7771 74.9561 43.7949C74.9561 43.9609 75.0353 44.044 75.1936 44.044C75.2907 44.044 75.3992 44.012 75.5193 43.9482L75.5959 44.1129C75.458 44.1946 75.315 44.2355 75.1668 44.2355C75.0315 44.2355 74.9255 44.1997 74.8489 44.1282C74.7722 44.0542 74.7339 43.9495 74.7339 43.8141C74.7339 43.7886 74.7365 43.7502 74.7416 43.6992L74.9293 42.3698H74.5922L74.619 42.1898H74.96L75.0711 41.7032L75.2473 41.6841L75.1745 42.1898H75.6917L75.638 42.3698H75.1515L74.9638 43.6992ZM77.4782 42.6303C77.4782 42.8755 77.3582 43.0581 77.1181 43.1781C76.878 43.2956 76.5371 43.371 76.0952 43.4042V43.4272C76.0952 43.6366 76.1399 43.7911 76.2293 43.8907C76.3212 43.9903 76.4464 44.0401 76.6047 44.0401C76.7095 44.0401 76.8052 44.0248 76.8921 43.9941C76.9815 43.9609 77.0747 43.9099 77.1717 43.8409L77.2713 43.998C77.1641 44.0772 77.0542 44.1372 76.9419 44.178C76.832 44.2163 76.7146 44.2355 76.5894 44.2355C76.3596 44.2355 76.1808 44.1653 76.0531 44.0248C75.9254 43.8843 75.8615 43.6864 75.8615 43.431C75.8615 43.2292 75.8973 43.03 75.9688 42.8334C76.0429 42.6367 76.1565 42.4732 76.3098 42.343C76.4655 42.2127 76.6571 42.1476 76.8844 42.1476C77.0708 42.1476 77.2164 42.1936 77.3211 42.2855C77.4258 42.3749 77.4782 42.4898 77.4782 42.6303ZM76.8844 42.3315C76.6545 42.3315 76.4745 42.4196 76.3442 42.5958C76.2165 42.7721 76.1374 42.9828 76.1067 43.228C76.4898 43.1973 76.7759 43.136 76.9649 43.0441C77.1538 42.9521 77.2483 42.8168 77.2483 42.638C77.2483 42.5511 77.2177 42.4784 77.1564 42.4196C77.0951 42.3609 77.0044 42.3315 76.8844 42.3315ZM78.9213 42.1476C78.9954 42.1476 79.0592 42.1566 79.1129 42.1744L79.0516 42.3851C79.0056 42.3698 78.952 42.3621 78.8907 42.3621C78.7502 42.3621 78.6289 42.4196 78.5267 42.5345C78.4271 42.6495 78.3339 42.8219 78.2471 43.0517L78.0823 44.1934H77.8601L78.1436 42.1898H78.3352L78.2854 42.6763C78.4412 42.3238 78.6532 42.1476 78.9213 42.1476ZM79.7875 42.1898L79.504 44.1934H79.2818L79.5653 42.1898H79.7875ZM79.7645 41.6304C79.7185 41.6304 79.6815 41.6177 79.6534 41.5921C79.6253 41.564 79.6113 41.5283 79.6113 41.4849C79.6113 41.4338 79.6279 41.3916 79.6611 41.3584C79.6968 41.3252 79.7402 41.3086 79.7913 41.3086C79.8373 41.3086 79.8743 41.3227 79.9024 41.3508C79.9305 41.3763 79.9446 41.4108 79.9446 41.4542C79.9446 41.5053 79.9267 41.5474 79.8909 41.5806C79.8577 41.6138 79.8156 41.6304 79.7645 41.6304ZM81.4906 42.1476C81.6413 42.1476 81.7575 42.1898 81.8392 42.274C81.9209 42.3583 81.9618 42.4784 81.9618 42.6341C81.9618 42.6801 81.9579 42.7286 81.9503 42.7797L81.7511 44.1934H81.5289L81.7281 42.7874C81.7332 42.7567 81.7357 42.7146 81.7357 42.661C81.7357 42.4439 81.6387 42.3353 81.4446 42.3353C81.1866 42.3353 80.9389 42.555 80.7014 42.9943L80.5328 44.1934H80.3106L80.5941 42.1898H80.7857L80.732 42.6878C80.8367 42.5141 80.953 42.3813 81.0807 42.2894C81.2083 42.1949 81.345 42.1476 81.4906 42.1476ZM83.5442 42.1476C83.6693 42.1476 83.7817 42.1617 83.8813 42.1898C83.9809 42.2178 84.0831 42.2587 84.1878 42.3123L83.9158 44.178C83.8366 44.7169 83.557 44.9864 83.0768 44.9864C82.8469 44.9864 82.626 44.9238 82.414 44.7987L82.5022 44.6301C82.6963 44.7374 82.8853 44.791 83.0691 44.791C83.4293 44.791 83.6387 44.588 83.6974 44.1819L83.7434 43.8486C83.6668 43.9533 83.5761 44.0376 83.4714 44.1014C83.3667 44.1627 83.2556 44.1934 83.1381 44.1934C82.9414 44.1934 82.7869 44.1244 82.6746 43.9865C82.5622 43.8486 82.5047 43.6621 82.5022 43.4272C82.5022 43.228 82.5379 43.03 82.6094 42.8334C82.6835 42.6367 82.7984 42.4732 82.9542 42.343C83.11 42.2127 83.3067 42.1476 83.5442 42.1476ZM83.5442 42.3277C83.3603 42.3277 83.2071 42.3839 83.0845 42.4962C82.9644 42.6086 82.8763 42.7491 82.8201 42.9176C82.7639 43.0862 82.7371 43.256 82.7397 43.4272C82.7397 43.6136 82.778 43.7566 82.8546 43.8562C82.9312 43.9558 83.0372 44.0056 83.1726 44.0056C83.2901 44.0056 83.3986 43.9699 83.4982 43.8984C83.5978 43.8269 83.6923 43.7234 83.7817 43.5881L83.9503 42.4196C83.8277 42.3583 83.6923 42.3277 83.5442 42.3277ZM86.5083 42.1476C86.7458 42.1476 86.9514 42.223 87.1251 42.3736L87.0063 42.5077C86.9297 42.449 86.8518 42.4056 86.7727 42.3775C86.6935 42.3494 86.6054 42.3353 86.5083 42.3353C86.3653 42.3353 86.2504 42.366 86.1635 42.4273C86.0767 42.486 86.0333 42.5677 86.0333 42.6725C86.0333 42.7593 86.0652 42.8308 86.1291 42.887C86.1955 42.9406 86.3104 42.9917 86.4738 43.0402C86.6705 43.1015 86.8122 43.1769 86.8991 43.2663C86.9885 43.3557 87.0332 43.4731 87.0332 43.6187C87.0332 43.8052 86.9629 43.9546 86.8225 44.0669C86.682 44.1793 86.493 44.2355 86.2555 44.2355C86.0997 44.2355 85.9643 44.2112 85.8494 44.1627C85.737 44.1142 85.6361 44.0478 85.5467 43.9635L85.6732 43.8332C85.76 43.9048 85.8494 43.9584 85.9413 43.9941C86.0333 44.0299 86.138 44.0478 86.2555 44.0478C86.4291 44.0478 86.5632 44.0107 86.6577 43.9367C86.7548 43.8601 86.8033 43.7605 86.8033 43.6379C86.8033 43.5306 86.7701 43.4476 86.7037 43.3889C86.6399 43.3301 86.5198 43.2726 86.3436 43.2165C86.1469 43.1552 86.0077 43.0836 85.926 43.0019C85.8468 42.9176 85.8073 42.8116 85.8073 42.684C85.8073 42.5869 85.8353 42.4975 85.8915 42.4158C85.9477 42.3341 86.0282 42.2689 86.1329 42.2204C86.2402 42.1719 86.3653 42.1476 86.5083 42.1476ZM88.0673 44.2355C87.9166 44.2355 87.7991 44.1934 87.7148 44.1091C87.6331 44.0248 87.5923 43.906 87.5923 43.7528C87.5923 43.7094 87.5961 43.6634 87.6037 43.6149L87.803 42.1898H88.0252L87.8259 43.6072C87.8208 43.6379 87.8183 43.6787 87.8183 43.7298C87.8183 43.9443 87.9153 44.0516 88.1094 44.0516C88.2499 44.0516 88.3802 43.9941 88.5002 43.8792C88.6228 43.7617 88.7326 43.6072 88.8297 43.4157L89.0021 42.1898H89.2243L88.9408 44.1934H88.7569L88.8105 43.6838C88.7186 43.855 88.61 43.9903 88.4849 44.0899C88.3623 44.187 88.2231 44.2355 88.0673 44.2355ZM90.4852 42.1476C90.7227 42.1476 90.9283 42.223 91.102 42.3736L90.9832 42.5077C90.9066 42.449 90.8287 42.4056 90.7496 42.3775C90.6704 42.3494 90.5823 42.3353 90.4852 42.3353C90.3422 42.3353 90.2273 42.366 90.1404 42.4273C90.0536 42.486 90.0102 42.5677 90.0102 42.6725C90.0102 42.7593 90.0421 42.8308 90.1059 42.887C90.1724 42.9406 90.2873 42.9917 90.4507 43.0402C90.6474 43.1015 90.7891 43.1769 90.876 43.2663C90.9654 43.3557 91.0101 43.4731 91.0101 43.6187C91.0101 43.8052 90.9398 43.9546 90.7994 44.0669C90.6589 44.1793 90.4699 44.2355 90.2324 44.2355C90.0766 44.2355 89.9412 44.2112 89.8263 44.1627C89.7139 44.1142 89.613 44.0478 89.5236 43.9635L89.6501 43.8332C89.7369 43.9048 89.8263 43.9584 89.9182 43.9941C90.0102 44.0299 90.1149 44.0478 90.2324 44.0478C90.406 44.0478 90.5401 44.0107 90.6346 43.9367C90.7317 43.8601 90.7802 43.7605 90.7802 43.6379C90.7802 43.5306 90.747 43.4476 90.6806 43.3889C90.6167 43.3301 90.4967 43.2726 90.3205 43.2165C90.1238 43.1552 89.9846 43.0836 89.9029 43.0019C89.8237 42.9176 89.7841 42.8116 89.7841 42.684C89.7841 42.5869 89.8122 42.4975 89.8684 42.4158C89.9246 42.3341 90.0051 42.2689 90.1098 42.2204C90.217 42.1719 90.3422 42.1476 90.4852 42.1476ZM91.8067 43.6992C91.8016 43.7451 91.799 43.7771 91.799 43.7949C91.799 43.9609 91.8782 44.044 92.0365 44.044C92.1336 44.044 92.2421 44.012 92.3622 43.9482L92.4388 44.1129C92.3009 44.1946 92.1578 44.2355 92.0097 44.2355C91.8743 44.2355 91.7684 44.1997 91.6917 44.1282C91.6151 44.0542 91.5768 43.9495 91.5768 43.8141C91.5768 43.7886 91.5794 43.7502 91.5845 43.6992L91.7722 42.3698H91.4351L91.4619 42.1898H91.8028L91.9139 41.7032L92.0902 41.6841L92.0174 42.1898H92.5346L92.4809 42.3698H91.9944L91.8067 43.6992ZM93.7311 42.1476C93.8563 42.1476 93.9686 42.1617 94.0682 42.1898C94.1678 42.2178 94.27 42.2587 94.3747 42.3123L94.164 43.7566C94.1589 43.7847 94.1563 43.823 94.1563 43.8716C94.1563 43.9252 94.1653 43.9686 94.1832 44.0018C94.2036 44.0325 94.2368 44.058 94.2828 44.0784L94.2176 44.2355C94.1283 44.2151 94.0606 44.178 94.0146 44.1244C93.9686 44.0682 93.9469 43.9839 93.9495 43.8716C93.8729 43.9839 93.7809 44.0733 93.6736 44.1397C93.5689 44.2036 93.4553 44.2355 93.3327 44.2355C93.1335 44.2355 92.9777 44.1665 92.8653 44.0286C92.7555 43.8882 92.7006 43.6979 92.7006 43.4578C92.7006 43.2586 92.7363 43.0581 92.8078 42.8563C92.8794 42.6546 92.9917 42.486 93.145 42.3507C93.3008 42.2153 93.4961 42.1476 93.7311 42.1476ZM93.7388 42.3277C93.5574 42.3277 93.4055 42.3864 93.2829 42.5039C93.1628 42.6214 93.0747 42.767 93.0185 42.9406C92.9649 43.1143 92.9381 43.2867 92.9381 43.4578C92.9381 43.6519 92.9751 43.7988 93.0492 43.8984C93.1233 43.998 93.2292 44.0478 93.3672 44.0478C93.4872 44.0478 93.5945 44.012 93.689 43.9405C93.786 43.869 93.878 43.7643 93.9648 43.6264L94.1372 42.4196C94.0146 42.3583 93.8818 42.3277 93.7388 42.3277ZM95.3883 42.1898L95.1048 44.1934H94.8826L95.1661 42.1898H95.3883ZM95.3653 41.6304C95.3193 41.6304 95.2823 41.6177 95.2542 41.5921C95.2261 41.564 95.2121 41.5283 95.2121 41.4849C95.2121 41.4338 95.2287 41.3916 95.2619 41.3584C95.2976 41.3252 95.341 41.3086 95.3921 41.3086C95.4381 41.3086 95.4751 41.3227 95.5032 41.3508C95.5313 41.3763 95.5454 41.4108 95.5454 41.4542C95.5454 41.5053 95.5275 41.5474 95.4917 41.5806C95.4585 41.6138 95.4164 41.6304 95.3653 41.6304ZM97.0914 42.1476C97.2421 42.1476 97.3583 42.1898 97.44 42.274C97.5217 42.3583 97.5626 42.4784 97.5626 42.6341C97.5626 42.6801 97.5587 42.7286 97.5511 42.7797L97.3519 44.1934H97.1297L97.3289 42.7874C97.334 42.7567 97.3365 42.7146 97.3365 42.661C97.3365 42.4439 97.2395 42.3353 97.0454 42.3353C96.7874 42.3353 96.5397 42.555 96.3022 42.9943L96.1336 44.1934H95.9114L96.1949 42.1898H96.3865L96.3328 42.6878C96.4375 42.5141 96.5537 42.3813 96.6814 42.2894C96.8091 42.1949 96.9458 42.1476 97.0914 42.1476ZM99.1297 42.1476C99.2548 42.1476 99.3672 42.1617 99.4668 42.1898C99.5664 42.2178 99.6686 42.2587 99.7733 42.3123L99.5626 43.7566C99.5575 43.7847 99.5549 43.823 99.5549 43.8716C99.5549 43.9252 99.5638 43.9686 99.5817 44.0018C99.6021 44.0325 99.6353 44.058 99.6813 44.0784L99.6162 44.2355C99.5268 44.2151 99.4591 44.178 99.4132 44.1244C99.3672 44.0682 99.3455 43.9839 99.348 43.8716C99.2714 43.9839 99.1795 44.0733 99.0722 44.1397C98.9675 44.2036 98.8538 44.2355 98.7312 44.2355C98.532 44.2355 98.3762 44.1665 98.2639 44.0286C98.154 43.8882 98.0991 43.6979 98.0991 43.4578C98.0991 43.2586 98.1349 43.0581 98.2064 42.8563C98.2779 42.6546 98.3903 42.486 98.5435 42.3507C98.6993 42.2153 98.8947 42.1476 99.1297 42.1476ZM99.1373 42.3277C98.956 42.3277 98.804 42.3864 98.6814 42.5039C98.5614 42.6214 98.4733 42.767 98.4171 42.9406C98.3635 43.1143 98.3366 43.2867 98.3366 43.4578C98.3366 43.6519 98.3737 43.7988 98.4477 43.8984C98.5218 43.998 98.6278 44.0478 98.7657 44.0478C98.8858 44.0478 98.993 44.012 99.0875 43.9405C99.1846 43.869 99.2765 43.7643 99.3633 43.6264L99.5357 42.4196C99.4132 42.3583 99.2803 42.3277 99.1373 42.3277ZM101.384 42.1476C101.576 42.1476 101.724 42.214 101.829 42.3468C101.936 42.4771 101.99 42.6635 101.99 42.9061C101.99 43.1105 101.955 43.3148 101.886 43.5191C101.817 43.7209 101.705 43.8907 101.549 44.0286C101.396 44.1665 101.198 44.2355 100.955 44.2355C100.846 44.2355 100.741 44.2253 100.641 44.2049C100.544 44.187 100.429 44.1538 100.296 44.1052L100.683 41.3738L100.906 41.3431L100.756 42.4388C100.95 42.2447 101.16 42.1476 101.384 42.1476ZM101.338 42.3353C101.218 42.3353 101.111 42.3647 101.017 42.4234C100.922 42.4796 100.824 42.5614 100.722 42.6686L100.542 43.9673C100.611 43.9954 100.677 44.0159 100.741 44.0286C100.805 44.0414 100.88 44.0478 100.967 44.0478C101.153 44.0478 101.305 43.9878 101.423 43.8677C101.543 43.7451 101.628 43.5957 101.679 43.4195C101.733 43.2433 101.76 43.0683 101.76 42.8947C101.76 42.7057 101.723 42.5652 101.649 42.4732C101.577 42.3813 101.474 42.3353 101.338 42.3353ZM102.726 43.8562C102.724 43.869 102.722 43.8869 102.722 43.9099C102.722 43.9558 102.733 43.9903 102.753 44.0133C102.774 44.0337 102.807 44.044 102.853 44.044C102.894 44.044 102.942 44.0337 102.998 44.0133L103.048 44.1819C102.969 44.2176 102.892 44.2355 102.818 44.2355C102.719 44.2355 102.641 44.21 102.585 44.1589C102.531 44.1052 102.504 44.0273 102.504 43.9252C102.504 43.9073 102.507 43.8728 102.512 43.8218L102.857 41.3738L103.079 41.3431L102.726 43.8562ZM105.118 42.6303C105.118 42.8755 104.998 43.0581 104.758 43.1781C104.518 43.2956 104.177 43.371 103.735 43.4042V43.4272C103.735 43.6366 103.78 43.7911 103.869 43.8907C103.961 43.9903 104.086 44.0401 104.245 44.0401C104.349 44.0401 104.445 44.0248 104.532 43.9941C104.621 43.9609 104.715 43.9099 104.812 43.8409L104.911 43.998C104.804 44.0772 104.694 44.1372 104.582 44.178C104.472 44.2163 104.355 44.2355 104.229 44.2355C104 44.2355 103.821 44.1653 103.693 44.0248C103.565 43.8843 103.502 43.6864 103.502 43.431C103.502 43.2292 103.537 43.03 103.609 42.8334C103.683 42.6367 103.796 42.4732 103.95 42.343C104.106 42.2127 104.297 42.1476 104.524 42.1476C104.711 42.1476 104.856 42.1936 104.961 42.2855C105.066 42.3749 105.118 42.4898 105.118 42.6303ZM104.524 42.3315C104.295 42.3315 104.114 42.4196 103.984 42.5958C103.857 42.7721 103.777 42.9828 103.747 43.228C104.13 43.1973 104.416 43.136 104.605 43.0441C104.794 42.9521 104.888 42.8168 104.888 42.638C104.888 42.5511 104.858 42.4784 104.796 42.4196C104.735 42.3609 104.644 42.3315 104.524 42.3315ZM106.812 43.8562C106.809 43.869 106.808 43.8869 106.808 43.9099C106.808 43.9558 106.818 43.9903 106.839 44.0133C106.859 44.0337 106.892 44.044 106.938 44.044C106.979 44.044 107.028 44.0337 107.084 44.0133L107.134 44.1819C107.054 44.2176 106.978 44.2355 106.904 44.2355C106.804 44.2355 106.726 44.21 106.67 44.1589C106.616 44.1052 106.59 44.0273 106.59 43.9252C106.59 43.9073 106.592 43.8728 106.597 43.8218L106.942 41.3738L107.164 41.3431L106.812 43.8562ZM108.146 42.1898L107.862 44.1934H107.64L107.924 42.1898H108.146ZM108.123 41.6304C108.077 41.6304 108.04 41.6177 108.012 41.5921C107.984 41.564 107.97 41.5283 107.97 41.4849C107.97 41.4338 107.986 41.3916 108.019 41.3584C108.055 41.3252 108.099 41.3086 108.15 41.3086C108.196 41.3086 108.233 41.3227 108.261 41.3508C108.289 41.3763 108.303 41.4108 108.303 41.4542C108.303 41.5053 108.285 41.5474 108.249 41.5806C108.216 41.6138 108.174 41.6304 108.123 41.6304ZM110.286 42.1898L109.309 44.1934H109.037L108.608 42.1898H108.849L109.198 43.9941L110.037 42.1898H110.286ZM110.967 42.1898L110.683 44.1934H110.461L110.744 42.1898H110.967ZM110.944 41.6304C110.898 41.6304 110.861 41.6177 110.833 41.5921C110.804 41.564 110.79 41.5283 110.79 41.4849C110.79 41.4338 110.807 41.3916 110.84 41.3584C110.876 41.3252 110.919 41.3086 110.97 41.3086C111.016 41.3086 111.053 41.3227 111.082 41.3508C111.11 41.3763 111.124 41.4108 111.124 41.4542C111.124 41.5053 111.106 41.5474 111.07 41.5806C111.037 41.6138 110.995 41.6304 110.944 41.6304ZM112.67 42.1476C112.82 42.1476 112.937 42.1898 113.018 42.274C113.1 42.3583 113.141 42.4784 113.141 42.6341C113.141 42.6801 113.137 42.7286 113.129 42.7797L112.93 44.1934H112.708L112.907 42.7874C112.912 42.7567 112.915 42.7146 112.915 42.661C112.915 42.4439 112.818 42.3353 112.624 42.3353C112.366 42.3353 112.118 42.555 111.881 42.9943L111.712 44.1934H111.49L111.773 42.1898H111.965L111.911 42.6878C112.016 42.5141 112.132 42.3813 112.26 42.2894C112.387 42.1949 112.524 42.1476 112.67 42.1476ZM114.723 42.1476C114.848 42.1476 114.961 42.1617 115.06 42.1898C115.16 42.2178 115.262 42.2587 115.367 42.3123L115.095 44.178C115.016 44.7169 114.736 44.9864 114.256 44.9864C114.026 44.9864 113.805 44.9238 113.593 44.7987L113.681 44.6301C113.875 44.7374 114.064 44.791 114.248 44.791C114.608 44.791 114.818 44.588 114.877 44.1819L114.923 43.8486C114.846 43.9533 114.755 44.0376 114.651 44.1014C114.546 44.1627 114.435 44.1934 114.317 44.1934C114.121 44.1934 113.966 44.1244 113.854 43.9865C113.741 43.8486 113.684 43.6621 113.681 43.4272C113.681 43.228 113.717 43.03 113.789 42.8334C113.863 42.6367 113.978 42.4732 114.133 42.343C114.289 42.2127 114.486 42.1476 114.723 42.1476ZM114.723 42.3277C114.539 42.3277 114.386 42.3839 114.264 42.4962C114.144 42.6086 114.055 42.7491 113.999 42.9176C113.943 43.0862 113.916 43.256 113.919 43.4272C113.919 43.6136 113.957 43.7566 114.034 43.8562C114.11 43.9558 114.216 44.0056 114.352 44.0056C114.469 44.0056 114.578 43.9699 114.677 43.8984C114.777 43.8269 114.871 43.7234 114.961 43.5881L115.129 42.4196C115.007 42.3583 114.871 42.3277 114.723 42.3277Z" fill="#1B420B"/>
<path d="M59.0526 17.7441L58.5563 20.8295H49.5145V26.9053H57.3862V29.9907H49.5145V36.3813H59.1947V39.4981H44.8342V17.7441H59.0526Z" fill="#1B420B"/>
</svg>
