<svg width="1503" height="575" viewBox="0 0 1503 575" fill="none" xmlns="http://www.w3.org/2000/svg">
<path d="M1311.58 498.609H1254.88L1253.86 496.849L1250.71 491.389L1244.78 481.119L1243.63 479.119L1236.54 466.839L1229.45 454.569L1229.32 454.339L1222.37 442.299L1215.28 430.029L1208.19 417.749L1204.77 411.819L1201.1 405.479L1194.01 393.199L1186.93 380.929L1180.22 369.299V368.649H1179.84L1172.76 356.379L1165.68 344.109L1158.59 331.829L1155.67 326.769L1151.5 319.549L1144.41 307.279L1137.32 319.549L1131.12 330.289L1130.24 331.829L1123.15 344.109L1116.06 356.379L1108.98 368.649L1106.57 372.819L1101.89 380.919L1094.81 393.199L1087.72 405.479L1082.02 415.339L1080.63 417.749L1073.55 430.019L1066.46 442.299L1059.37 454.569L1057.47 457.859L1052.29 466.839L1045.2 479.109L1044.05 481.119L1038.11 491.389L1033.94 498.609H977.26L981.43 491.389L983.83 487.229L987.36 481.119L988.51 479.119L995.6 466.839L1002.68 454.579V454.569L1008.38 444.709L1009.77 442.299L1016.86 430.019L1023.94 417.749L1031.03 405.479V405.469L1032.93 402.179L1038.11 393.199L1045.2 380.929L1052.29 368.649L1057.47 359.669L1059.37 356.379L1066.46 344.109L1073.55 331.829L1080.64 319.549L1082.02 317.149L1087.73 307.279L1094.81 294.999L1101.89 282.729L1106.57 274.619L1108.98 270.449L1116.06 258.179L1123.15 245.909L1127.32 238.679L1130.24 233.629L1131.12 232.099L1137.33 221.359H1151.5L1155.67 228.579L1158.59 233.629L1161.51 238.679L1165.68 245.909L1172.76 258.179L1179.84 270.449L1180.22 271.089L1186.93 282.729L1194.02 294.999L1201.11 307.279L1204.77 313.619L1208.19 319.549L1215.28 331.829L1222.37 344.109L1229.32 356.139V356.599L1229.45 356.379L1236.54 368.649L1243.63 380.929L1250.71 393.199L1253.86 398.649L1257.8 405.469L1264.88 417.749L1271.97 430.019L1278.41 441.169V442.299H1279.06L1286.14 454.569L1293.23 466.839L1300.32 479.119L1301.47 481.119L1302.96 483.699L1307.41 491.389L1311.58 498.609Z" fill="#1B420B"/>
<path d="M1312.25 499H1254.65L1179.83 369.4V369.04H1179.62L1144.41 308.06L1034.17 499H976.59L1137.11 220.97H1151.73L1278.81 441.07V441.91H1279.3L1312.25 499ZM1255.1 498.22H1310.9L1278.83 442.69H1278.02V441.28L1229.45 357.16L1228.93 358.07V356.24L1151.27 221.74H1137.55L977.93 498.22H1033.72L1144.41 306.5L1180.07 368.25H1180.61V369.18L1255.1 498.22Z" fill="#1B420B"/>
<path d="M932.64 234.45C947.09 240.05 960.43 248.58 972.68 260.03L945.34 291.67C935.7 283.86 926.07 278.13 916.44 274.48C906.8 270.84 896.52 269.01 885.58 269.01C873.6 269.01 864.03 271.55 856.87 276.63C849.7 281.71 846.13 288.93 846.13 298.31C846.13 304.82 847.63 310.16 850.62 314.32C853.61 318.49 858.88 322.39 866.44 326.04C873.99 329.69 885.32 333.85 900.42 338.54C927.24 347.13 947.29 357.75 960.57 370.37C973.85 383 980.49 401.03 980.49 424.47C980.49 441.14 976.32 455.78 967.99 468.41C959.65 481.04 947.54 490.94 931.66 498.09C915.77 505.25 897.15 508.83 875.81 508.83C854.46 508.83 835.44 505.44 818.78 498.68C802.11 491.91 787.79 482.67 775.81 470.95L805.1 438.53C815.51 447.39 826.32 454.09 837.52 458.65C848.71 463.21 860.96 465.49 874.24 465.49C888.3 465.49 899.56 462.24 908.03 455.73C916.49 449.22 920.72 440.11 920.72 428.39C920.72 421.1 919.22 415.05 916.23 410.23C913.23 405.41 908.09 401.05 900.8 397.15C893.51 393.24 882.96 389.21 869.16 385.04C839.73 375.93 818.71 364.99 806.08 352.23C793.45 339.47 787.14 322.81 787.14 302.23C787.14 287.13 791.17 273.78 799.25 262.19C807.32 250.61 818.52 241.68 832.84 235.43C847.16 229.18 863.43 226.06 881.66 226.06C901.2 226.05 918.19 228.86 932.64 234.45Z" fill="#1B420B"/>
<path d="M1462.71 231.94C1475.24 236.68 1487.5 243.91 1499.51 253.64L1470.93 286.28C1455.27 273.74 1438.83 267.46 1421.61 267.46C1402.29 267.46 1386.97 275.21 1375.61 290.7C1364.26 306.19 1358.58 330.45 1358.58 363.48C1358.58 395.74 1364.26 419.62 1375.61 435.11C1386.96 450.6 1402.42 458.35 1422 458.35C1432.18 458.35 1441.44 456.5 1449.79 452.78C1458.14 449.07 1466.88 443.75 1476.02 436.84L1502.64 469.49C1492.98 479.22 1481.04 487.22 1466.82 493.49C1452.59 499.76 1436.87 502.9 1419.65 502.9C1395.38 502.9 1374.11 497.52 1355.84 486.77C1337.57 476.02 1323.35 460.21 1313.17 439.34C1302.99 418.47 1297.9 393.19 1297.9 363.49C1297.9 334.56 1303.12 309.66 1313.56 288.79C1323.99 267.92 1338.35 252.05 1356.62 241.17C1374.88 230.29 1395.5 224.85 1418.47 224.85C1435.44 224.84 1450.18 227.21 1462.71 231.94Z" fill="#1B420B"/>
<path d="M91.1 131.46L90.73 131.65L90.36 131.84L87.83 127.72L88.21 127.53L88.57 127.34L90.72 130.84L91.1 131.46Z" fill="#DBA514"/>
<path d="M305.4 178.89L305.11 178.43L305.86 178.03L306.14 178.5L305.4 178.89Z" fill="#DBA514"/>
<path d="M23.6 537.2L10.62 558.42L1.48999 573.33H125.63L134.76 558.42L144.49 542.53L147.74 537.2H23.6Z" fill="#DBA514"/>
<path d="M23.09 536.41L0 574.13H126.13L149.22 536.41H23.09ZM2.95999 572.53L24.11 538.01H146.27L125.14 572.53H2.95999Z" fill="#DBA514"/>
<path d="M413.75 254.47L412.93 253.14L413.68 252.75L414.49 254.07L413.75 254.47Z" fill="#1B420B"/>
<path d="M383.07 558.419H352.04L359.54 570.679V573.329H311.88L320.99 558.419L334 537.199H396.07L383.07 558.419Z" fill="#1B420B"/>
<path d="M359.97 573.73H311.15L333.75 536.81H396.81L383.32 558.83H352.78L359.97 570.58V573.73ZM312.62 572.93H359.11V570.79L351.31 558.02H382.83L395.35 537.6H334.26L312.62 572.93Z" fill="#1B420B"/>
<path d="M467.07 537.2V573.33H373.96L383.07 558.42L396.07 537.2H413.3V558.42H445.15L458.15 537.2H467.07Z" fill="#1B420B"/>
<path d="M467.93 574.13H372.48L395.57 536.41H414.16V557.63H444.65L457.65 536.41H467.93V574.13ZM375.44 572.53H466.22V538H458.66L445.66 559.22H412.45V538H396.58L375.44 572.53Z" fill="#1B420B"/>
<path d="M458.15 537.2L445.15 558.42H414.12L413.3 557.08V537.2H458.15Z" fill="#1B420B"/>
<path d="M445.65 559.22H413.62L412.44 557.29V536.4H459.63L445.65 559.22ZM414.62 557.62H444.65L456.67 538H414.16V556.87L414.62 557.62Z" fill="#1B420B"/>
<path d="M383.07 558.42L373.96 573.33H361.15L359.54 570.68L352.04 558.42H383.07Z" fill="#1B420B"/>
<path d="M374.46 574.13H360.65L350.56 557.63H384.54L374.46 574.13ZM361.65 572.53H373.46L381.6 559.22H353.52L361.65 572.53Z" fill="#1B420B"/>
<path d="M429.65 279.61L414.12 304.95H413.3V306.29L398.6 330.31L383.09 355.65L367.57 381.01L359.54 394.1L352.04 406.35L336.52 431.69L321.01 406.35H289.96L305.49 380.99L305.77 381.47V380.52L320.99 355.65L336.52 330.29L352.04 304.95L359.54 292.71L367.55 279.61L359.54 266.51L352.04 254.27L336.52 228.91L320.99 203.57L305.77 178.7V177.74L305.49 178.23L289.96 152.87L274.44 127.53L258.91 102.17L252.02 90.9198L243.41 76.8298L227.88 51.4898L218.75 36.5698L212.36 26.1398L198.26 3.1098V0.799805H258.91L274.44 26.1398L280.81 36.5698L289.96 51.4898L305.49 76.8298V76.8498L305.77 77.3198L320.99 102.17L336.52 127.53L352.04 152.87L359.54 165.13L367.55 178.21V178.23L398.6 228.91L413.3 252.95V254.27H414.12L429.65 279.61Z" fill="#1B420B"/>
<path d="M336.52 433.3L320.51 407.14H288.49L366.56 279.6L197.4 3.31995V0H259.42L414.17 252.74V253.48H414.63L430.64 279.62L414.63 305.76H414.17V306.51L336.52 433.3ZM291.44 405.55H321.51L336.52 430.08L412.45 306.09V304.16H413.63L428.67 279.62L413.63 255.08H412.45V253.17L258.41 1.58997H199.11V2.88995L305.46 176.58L306.62 174.59V178.48L368.53 279.6L306.62 380.72V384.61L305.46 382.62L291.44 405.55Z" fill="#1B420B"/>
<path d="M336.52 431.69L320.99 457.04L305.77 481.92L305.49 482.38L289.96 507.73L274.44 533.08L258.93 558.42L252.02 569.7L249.8 573.33H187.7L196.83 558.42H198.26V556.11L212.36 533.07L227.88 507.73L243.39 482.38L252.02 468.3L258.91 457.04L274.44 431.69L289.96 406.35H321.01L336.52 431.69Z" fill="#1B420B"/>
<path d="M250.3 574.13H186.22L196.33 557.63H197.39V555.91L289.46 405.56H321.51L337.5 431.7L250.3 574.13ZM189.18 572.53H249.3L335.53 431.69L320.51 407.15H290.46L199.11 556.32V559.22H197.33L189.18 572.53Z" fill="#1B420B"/>
<path d="M467.07 0.800781V36.5707H342.89L336.52 26.1508L320.99 0.800781H413.3V2.12079L414.12 0.800781H467.07Z" fill="#1B420B"/>
<path d="M467.5 36.9704H342.64L336.14 26.3504L320.25 0.400391H413.73V0.620422L413.87 0.400391H467.5V36.9704ZM343.14 36.1704H466.64V1.19037H414.37L412.88 3.61041V1.19037H321.74L343.14 36.1704Z" fill="#1B420B"/>
<path d="M90.72 130.84V131.64L90.74 131.66L91.1 131.47L90.72 130.84ZM24.07 536.41L23.59 537.19H147.74L148.22 536.41H24.07Z" fill="#DBA514"/>
<path d="M305.48 279.6L289.97 304.94L274.43 330.29L259.16 355.24L258.92 355.64L252.01 366.89L251.58 367.6L243.39 380.98V380.99L227.89 406.33L212.36 431.67L198.25 454.72L196.83 457.03L181.33 482.36V482.37L150.28 533.06L148.22 536.41H24.07L26.12 533.07L36.97 515.36L41.65 507.71L57.16 482.37L72.68 457.03L88.19 431.67L90.72 427.57L103.72 406.33L119.25 380.98L134.77 355.64L144.49 339.76L150.28 330.29L165.8 304.94L181.33 279.6L165.8 254.25L150.28 228.9L144.49 219.46L134.75 203.56L119.25 178.22L103.72 152.86L90.73 131.65L91.1 131.46L90.72 130.84V123.4L88.19 127.52L72.68 102.16L57.16 76.8198L41.65 51.4898L36.97 43.8398L32.51 36.5598L26.12 26.1198L10.6 0.799805H134.77L144.49 16.6698L150.28 26.1198L156.68 36.5598L165.8 51.4898L181.33 76.8198L196.83 102.16L198.25 104.48L212.36 127.52L227.89 152.86L243.41 178.22L252.01 192.3L258.94 203.56L274.43 228.9L289.97 254.25L305.48 279.6Z" fill="#DBA514"/>
<path d="M259.16 355.24L258.92 355.64L252.01 366.9L251.58 367.6V368.41L259.66 355.24H259.16Z" fill="#DBA514"/>
<path d="M90.7199 123.399V130.839L88.5699 127.339L88.2099 127.529L88.1899 127.519L90.7199 123.399Z" fill="#DBA514"/>
<path d="M90.9199 131.549L88.4999 127.609L88.1699 127.779L87.95 127.56L88.0199 127.409L90.9099 122.689V131.549H90.9199ZM88.6699 127.12L90.5199 130.129V124.099L88.6699 127.12Z" fill="#DBA514"/>
<path d="M855.664 558.361C855.046 558.361 854.542 558.166 854.151 557.775C853.761 557.353 853.566 556.832 853.566 556.214C853.566 555.499 853.794 554.897 854.249 554.409C854.737 553.921 855.339 553.678 856.054 553.678C856.705 553.678 857.225 553.889 857.615 554.312C858.005 554.702 858.201 555.206 858.201 555.824C858.201 556.54 857.957 557.141 857.469 557.629C856.981 558.117 856.379 558.361 855.664 558.361ZM865.811 558.361C865.193 558.361 864.689 558.166 864.299 557.775C863.909 557.353 863.714 556.832 863.714 556.214C863.714 555.499 863.941 554.897 864.397 554.409C864.884 553.921 865.486 553.678 866.202 553.678C866.852 553.678 867.373 553.889 867.763 554.312C868.153 554.702 868.348 555.206 868.348 555.824C868.348 556.54 868.104 557.141 867.616 557.629C867.129 558.117 866.527 558.361 865.811 558.361ZM875.959 558.361C875.341 558.361 874.837 558.166 874.447 557.775C874.056 557.353 873.861 556.832 873.861 556.214C873.861 555.499 874.089 554.897 874.544 554.409C875.032 553.921 875.634 553.678 876.349 553.678C877 553.678 877.52 553.889 877.91 554.312C878.301 554.702 878.496 555.206 878.496 555.824C878.496 556.54 878.252 557.141 877.764 557.629C877.276 558.117 876.675 558.361 875.959 558.361ZM897.975 523.919C894.918 523.919 893.194 525.366 892.804 528.261L892.218 532.31H898.902L898.268 534.603H891.926L888.803 556.995C888.478 559.206 887.99 560.963 887.34 562.264C886.689 563.565 885.844 564.605 884.803 565.386C883.795 566.166 882.38 566.963 880.559 567.776L879.681 565.581C881.014 564.963 882.071 564.345 882.852 563.727C883.632 563.109 884.283 562.264 884.803 561.19C885.323 560.15 885.714 558.719 885.974 556.897L889.096 534.603H884.657L884.998 532.31H889.438L890.023 528.066C890.283 526.049 891.113 524.455 892.511 523.285C893.91 522.114 895.698 521.528 897.877 521.528C898.951 521.528 899.943 521.675 900.853 521.967C901.764 522.26 902.691 522.699 903.634 523.285L902.512 525.236C901.016 524.358 899.504 523.919 897.975 523.919ZM909.467 558.361C906.54 558.361 904.264 557.45 902.637 555.629C901.044 553.808 900.247 551.271 900.247 548.018C900.247 545.579 900.67 543.124 901.515 540.652C902.361 538.148 903.727 536.05 905.613 534.359C907.532 532.635 909.988 531.773 912.98 531.773C915.939 531.773 918.216 532.668 919.81 534.456C921.403 536.245 922.2 538.766 922.2 542.018C922.2 544.425 921.777 546.88 920.932 549.384C920.119 551.889 918.753 554.019 916.834 555.775C914.915 557.499 912.459 558.361 909.467 558.361ZM909.565 555.97C911.874 555.97 913.744 555.222 915.175 553.726C916.639 552.23 917.679 550.409 918.297 548.262C918.915 546.083 919.224 543.937 919.224 541.823C919.224 539.286 918.688 537.367 917.614 536.066C916.541 534.765 914.98 534.115 912.931 534.115C910.589 534.115 908.687 534.879 907.223 536.408C905.76 537.904 904.719 539.741 904.101 541.92C903.483 544.099 903.174 546.213 903.174 548.262C903.174 550.799 903.727 552.718 904.833 554.019C905.938 555.32 907.516 555.97 909.565 555.97ZM937.779 531.773C940.803 531.773 943.421 532.733 945.633 534.651L944.121 536.359C943.145 535.611 942.153 535.058 941.145 534.7C940.137 534.343 939.015 534.164 937.779 534.164C935.957 534.164 934.494 534.554 933.388 535.334C932.282 536.083 931.729 537.123 931.729 538.457C931.729 539.562 932.136 540.473 932.949 541.189C933.795 541.872 935.258 542.522 937.34 543.14C939.844 543.921 941.649 544.88 942.755 546.018C943.893 547.157 944.462 548.653 944.462 550.507C944.462 552.881 943.568 554.783 941.779 556.214C939.99 557.645 937.584 558.361 934.559 558.361C932.575 558.361 930.851 558.052 929.388 557.434C927.957 556.816 926.672 555.97 925.534 554.897L927.144 553.238C928.249 554.149 929.388 554.832 930.559 555.287C931.729 555.743 933.063 555.97 934.559 555.97C936.771 555.97 938.478 555.499 939.681 554.556C940.917 553.58 941.535 552.312 941.535 550.75C941.535 549.384 941.112 548.327 940.267 547.579C939.454 546.831 937.925 546.1 935.681 545.384C933.177 544.604 931.404 543.693 930.363 542.652C929.355 541.579 928.851 540.229 928.851 538.603C928.851 537.367 929.209 536.229 929.924 535.188C930.64 534.147 931.664 533.318 932.998 532.7C934.364 532.082 935.957 531.773 937.779 531.773ZM954.606 551.531C954.541 552.116 954.509 552.523 954.509 552.751C954.509 554.865 955.517 555.922 957.533 555.922C958.769 555.922 960.152 555.515 961.68 554.702L962.656 556.8C960.9 557.84 959.078 558.361 957.192 558.361C955.468 558.361 954.119 557.906 953.143 556.995C952.167 556.052 951.679 554.718 951.679 552.995C951.679 552.669 951.712 552.181 951.777 551.531L954.167 534.603H949.874L950.216 532.31H954.558L955.972 526.114L958.216 525.87L957.29 532.31H963.875L963.193 534.603H956.997L954.606 551.531ZM986.626 537.92C986.626 541.042 985.097 543.368 982.04 544.896C978.983 546.392 974.641 547.352 969.014 547.775V548.067C969.014 550.734 969.583 552.702 970.722 553.97C971.893 555.239 973.486 555.873 975.503 555.873C976.836 555.873 978.056 555.678 979.161 555.287C980.3 554.865 981.487 554.214 982.723 553.336L983.991 555.336C982.625 556.344 981.227 557.109 979.796 557.629C978.397 558.117 976.901 558.361 975.308 558.361C972.38 558.361 970.104 557.466 968.478 555.678C966.851 553.889 966.038 551.368 966.038 548.116C966.038 545.547 966.494 543.01 967.404 540.506C968.348 538.001 969.795 535.92 971.746 534.261C973.73 532.603 976.169 531.773 979.064 531.773C981.438 531.773 983.292 532.359 984.625 533.529C985.959 534.668 986.626 536.131 986.626 537.92ZM979.064 534.115C976.137 534.115 973.844 535.237 972.185 537.481C970.559 539.725 969.551 542.408 969.161 545.53C974.039 545.14 977.682 544.36 980.088 543.189C982.495 542.018 983.698 540.294 983.698 538.018C983.698 536.912 983.308 535.985 982.528 535.237C981.747 534.489 980.593 534.115 979.064 534.115ZM1005 531.773C1005.95 531.773 1006.76 531.887 1007.44 532.115L1006.66 534.798C1006.08 534.603 1005.39 534.505 1004.61 534.505C1002.82 534.505 1001.28 535.237 999.978 536.7C998.709 538.164 997.522 540.359 996.416 543.286L994.319 557.824H991.489L995.099 532.31H997.538L996.904 538.505C998.888 534.017 1001.59 531.773 1005 531.773ZM1016.03 532.31L1012.42 557.824H1009.59L1013.2 532.31H1016.03ZM1015.74 525.187C1015.15 525.187 1014.68 525.025 1014.32 524.699C1013.97 524.342 1013.79 523.886 1013.79 523.333C1013.79 522.683 1014 522.146 1014.42 521.724C1014.88 521.301 1015.43 521.089 1016.08 521.089C1016.67 521.089 1017.14 521.268 1017.5 521.626C1017.85 521.951 1018.03 522.39 1018.03 522.943C1018.03 523.594 1017.8 524.13 1017.35 524.553C1016.93 524.976 1016.39 525.187 1015.74 525.187ZM1037.72 531.773C1039.64 531.773 1041.12 532.31 1042.16 533.383C1043.2 534.456 1043.72 535.985 1043.72 537.969C1043.72 538.554 1043.67 539.172 1043.57 539.823L1041.04 557.824H1038.21L1040.74 539.92C1040.81 539.53 1040.84 538.993 1040.84 538.31C1040.84 535.546 1039.61 534.164 1037.13 534.164C1033.85 534.164 1030.69 536.961 1027.67 542.555L1025.52 557.824H1022.69L1026.3 532.31H1028.74L1028.06 538.652C1029.39 536.44 1030.87 534.749 1032.5 533.578C1034.13 532.375 1035.87 531.773 1037.72 531.773ZM1063.87 531.773C1065.46 531.773 1066.9 531.952 1068.16 532.31C1069.43 532.668 1070.73 533.188 1072.07 533.871L1068.6 557.629C1067.6 564.491 1064.03 567.923 1057.92 567.923C1054.99 567.923 1052.18 567.126 1049.48 565.532L1050.6 563.386C1053.07 564.752 1055.48 565.435 1057.82 565.435C1062.41 565.435 1065.07 562.849 1065.82 557.678L1066.41 553.434C1065.43 554.767 1064.28 555.84 1062.94 556.653C1061.61 557.434 1060.2 557.824 1058.7 557.824C1056.2 557.824 1054.23 556.946 1052.8 555.19C1051.37 553.434 1050.63 551.059 1050.6 548.067C1050.6 545.53 1051.06 543.01 1051.97 540.506C1052.91 538.001 1054.37 535.92 1056.36 534.261C1058.34 532.603 1060.85 531.773 1063.87 531.773ZM1063.87 534.066C1061.53 534.066 1059.58 534.782 1058.02 536.213C1056.49 537.644 1055.37 539.432 1054.65 541.579C1053.94 543.725 1053.59 545.888 1053.63 548.067C1053.63 550.441 1054.11 552.263 1055.09 553.531C1056.07 554.8 1057.42 555.434 1059.14 555.434C1060.64 555.434 1062.02 554.978 1063.29 554.068C1064.55 553.157 1065.76 551.84 1066.9 550.116L1069.04 535.237C1067.48 534.456 1065.76 534.066 1063.87 534.066ZM1101.62 531.773C1104.64 531.773 1107.26 532.733 1109.47 534.651L1107.96 536.359C1106.98 535.611 1105.99 535.058 1104.98 534.7C1103.98 534.343 1102.85 534.164 1101.62 534.164C1099.8 534.164 1098.33 534.554 1097.23 535.334C1096.12 536.083 1095.57 537.123 1095.57 538.457C1095.57 539.562 1095.97 540.473 1096.79 541.189C1097.63 541.872 1099.1 542.522 1101.18 543.14C1103.68 543.921 1105.49 544.88 1106.59 546.018C1107.73 547.157 1108.3 548.653 1108.3 550.507C1108.3 552.881 1107.41 554.783 1105.62 556.214C1103.83 557.645 1101.42 558.361 1098.4 558.361C1096.41 558.361 1094.69 558.052 1093.23 557.434C1091.8 556.816 1090.51 555.97 1089.37 554.897L1090.98 553.238C1092.09 554.149 1093.23 554.832 1094.4 555.287C1095.57 555.743 1096.9 555.97 1098.4 555.97C1100.61 555.97 1102.32 555.499 1103.52 554.556C1104.76 553.58 1105.37 552.312 1105.37 550.75C1105.37 549.384 1104.95 548.327 1104.11 547.579C1103.29 546.831 1101.76 546.1 1099.52 545.384C1097.02 544.604 1095.24 543.693 1094.2 542.652C1093.19 541.579 1092.69 540.229 1092.69 538.603C1092.69 537.367 1093.05 536.229 1093.76 535.188C1094.48 534.147 1095.5 533.318 1096.84 532.7C1098.2 532.082 1099.8 531.773 1101.62 531.773ZM1121.47 558.361C1119.55 558.361 1118.05 557.824 1116.98 556.751C1115.94 555.678 1115.42 554.165 1115.42 552.214C1115.42 551.661 1115.47 551.076 1115.57 550.458L1118.1 532.31H1120.93L1118.4 550.36C1118.33 550.75 1118.3 551.271 1118.3 551.921C1118.3 554.653 1119.53 556.019 1122.01 556.019C1123.79 556.019 1125.45 555.287 1126.98 553.824C1128.54 552.328 1129.94 550.36 1131.18 547.921L1133.37 532.31H1136.2L1132.59 557.824H1130.25L1130.93 551.336C1129.76 553.515 1128.38 555.239 1126.79 556.507C1125.23 557.743 1123.45 558.361 1121.47 558.361ZM1152.26 531.773C1155.28 531.773 1157.9 532.733 1160.11 534.651L1158.6 536.359C1157.63 535.611 1156.63 535.058 1155.63 534.7C1154.62 534.343 1153.5 534.164 1152.26 534.164C1150.44 534.164 1148.98 534.554 1147.87 535.334C1146.76 536.083 1146.21 537.123 1146.21 538.457C1146.21 539.562 1146.62 540.473 1147.43 541.189C1148.28 541.872 1149.74 542.522 1151.82 543.14C1154.33 543.921 1156.13 544.88 1157.24 546.018C1158.37 547.157 1158.94 548.653 1158.94 550.507C1158.94 552.881 1158.05 554.783 1156.26 556.214C1154.47 557.645 1152.06 558.361 1149.04 558.361C1147.06 558.361 1145.33 558.052 1143.87 557.434C1142.44 556.816 1141.15 555.97 1140.01 554.897L1141.62 553.238C1142.73 554.149 1143.87 554.832 1145.04 555.287C1146.21 555.743 1147.54 555.97 1149.04 555.97C1151.25 555.97 1152.96 555.499 1154.16 554.556C1155.4 553.58 1156.02 552.312 1156.02 550.75C1156.02 549.384 1155.59 548.327 1154.75 547.579C1153.93 546.831 1152.41 546.1 1150.16 545.384C1147.66 544.604 1145.89 543.693 1144.84 542.652C1143.84 541.579 1143.33 540.229 1143.33 538.603C1143.33 537.367 1143.69 536.229 1144.41 535.188C1145.12 534.147 1146.15 533.318 1147.48 532.7C1148.84 532.082 1150.44 531.773 1152.26 531.773ZM1169.09 551.531C1169.02 552.116 1168.99 552.523 1168.99 552.751C1168.99 554.865 1170 555.922 1172.01 555.922C1173.25 555.922 1174.63 555.515 1176.16 554.702L1177.14 556.8C1175.38 557.84 1173.56 558.361 1171.67 558.361C1169.95 558.361 1168.6 557.906 1167.62 556.995C1166.65 556.052 1166.16 554.718 1166.16 552.995C1166.16 552.669 1166.19 552.181 1166.26 551.531L1168.65 534.603H1164.36L1164.7 532.31H1169.04L1170.45 526.114L1172.7 525.87L1171.77 532.31H1178.36L1177.67 534.603H1171.48L1169.09 551.531ZM1193.59 531.773C1195.19 531.773 1196.62 531.952 1197.89 532.31C1199.16 532.668 1200.46 533.188 1201.79 533.871L1199.11 552.263C1199.04 552.621 1199.01 553.108 1199.01 553.726C1199.01 554.409 1199.12 554.962 1199.35 555.385C1199.61 555.775 1200.03 556.1 1200.62 556.361L1199.79 558.361C1198.65 558.101 1197.79 557.629 1197.2 556.946C1196.62 556.231 1196.34 555.157 1196.37 553.726C1195.4 555.157 1194.23 556.296 1192.86 557.141C1191.53 557.954 1190.08 558.361 1188.52 558.361C1185.98 558.361 1184 557.483 1182.57 555.726C1181.17 553.938 1180.47 551.515 1180.47 548.458C1180.47 545.921 1180.93 543.368 1181.84 540.798C1182.75 538.229 1184.18 536.083 1186.13 534.359C1188.11 532.635 1190.6 531.773 1193.59 531.773ZM1193.69 534.066C1191.38 534.066 1189.45 534.814 1187.89 536.31C1186.36 537.806 1185.24 539.66 1184.52 541.872C1183.84 544.083 1183.5 546.279 1183.5 548.458C1183.5 550.929 1183.97 552.799 1184.91 554.068C1185.85 555.336 1187.2 555.97 1188.96 555.97C1190.49 555.97 1191.85 555.515 1193.06 554.604C1194.29 553.694 1195.46 552.36 1196.57 550.604L1198.77 535.237C1197.2 534.456 1195.51 534.066 1193.69 534.066ZM1214.7 532.31L1211.09 557.824H1208.26L1211.87 532.31H1214.7ZM1214.4 525.187C1213.82 525.187 1213.35 525.025 1212.99 524.699C1212.63 524.342 1212.45 523.886 1212.45 523.333C1212.45 522.683 1212.66 522.146 1213.09 521.724C1213.54 521.301 1214.1 521.089 1214.75 521.089C1215.33 521.089 1215.8 521.268 1216.16 521.626C1216.52 521.951 1216.7 522.39 1216.7 522.943C1216.7 523.594 1216.47 524.13 1216.01 524.553C1215.59 524.976 1215.05 525.187 1214.4 525.187ZM1236.38 531.773C1238.3 531.773 1239.78 532.31 1240.82 533.383C1241.86 534.456 1242.38 535.985 1242.38 537.969C1242.38 538.554 1242.34 539.172 1242.24 539.823L1239.7 557.824H1236.87L1239.41 539.92C1239.47 539.53 1239.51 538.993 1239.51 538.31C1239.51 535.546 1238.27 534.164 1235.8 534.164C1232.51 534.164 1229.36 536.961 1226.33 542.555L1224.19 557.824H1221.36L1224.97 532.31H1227.41L1226.72 538.652C1228.06 536.44 1229.54 534.749 1231.16 533.578C1232.79 532.375 1234.53 531.773 1236.38 531.773ZM1262.34 531.773C1263.93 531.773 1265.36 531.952 1266.63 532.31C1267.9 532.668 1269.2 533.188 1270.54 533.871L1267.85 552.263C1267.79 552.621 1267.76 553.108 1267.76 553.726C1267.76 554.409 1267.87 554.962 1268.1 555.385C1268.36 555.775 1268.78 556.1 1269.37 556.361L1268.54 558.361C1267.4 558.101 1266.54 557.629 1265.95 556.946C1265.36 556.231 1265.09 555.157 1265.12 553.726C1264.15 555.157 1262.97 556.296 1261.61 557.141C1260.28 557.954 1258.83 558.361 1257.27 558.361C1254.73 558.361 1252.75 557.483 1251.31 555.726C1249.92 553.938 1249.22 551.515 1249.22 548.458C1249.22 545.921 1249.67 543.368 1250.58 540.798C1251.49 538.229 1252.92 536.083 1254.88 534.359C1256.86 532.635 1259.35 531.773 1262.34 531.773ZM1262.44 534.066C1260.13 534.066 1258.19 534.814 1256.63 536.31C1255.1 537.806 1253.98 539.66 1253.27 541.872C1252.58 544.083 1252.24 546.279 1252.24 548.458C1252.24 550.929 1252.71 552.799 1253.66 554.068C1254.6 555.336 1255.95 555.97 1257.71 555.97C1259.23 555.97 1260.6 555.515 1261.8 554.604C1263.04 553.694 1264.21 552.36 1265.32 550.604L1267.51 535.237C1265.95 534.456 1264.26 534.066 1262.44 534.066ZM1291.05 531.773C1293.49 531.773 1295.38 532.619 1296.71 534.31C1298.08 535.969 1298.76 538.343 1298.76 541.433C1298.76 544.034 1298.32 546.636 1297.44 549.238C1296.57 551.807 1295.14 553.97 1293.15 555.726C1291.2 557.483 1288.68 558.361 1285.59 558.361C1284.19 558.361 1282.86 558.231 1281.59 557.971C1280.35 557.743 1278.89 557.32 1277.2 556.702L1282.13 521.919L1284.96 521.528L1283.05 535.481C1285.52 533.009 1288.19 531.773 1291.05 531.773ZM1290.47 534.164C1288.94 534.164 1287.57 534.538 1286.37 535.286C1285.17 536.001 1283.91 537.042 1282.61 538.408L1280.32 554.946C1281.2 555.304 1282.04 555.564 1282.86 555.726C1283.67 555.889 1284.63 555.97 1285.74 555.97C1288.11 555.97 1290.05 555.206 1291.54 553.678C1293.07 552.116 1294.16 550.214 1294.81 547.97C1295.49 545.726 1295.83 543.498 1295.83 541.286C1295.83 538.879 1295.36 537.091 1294.42 535.92C1293.51 534.749 1292.19 534.164 1290.47 534.164ZM1308.14 553.531C1308.11 553.694 1308.09 553.921 1308.09 554.214C1308.09 554.8 1308.22 555.239 1308.48 555.531C1308.74 555.792 1309.17 555.922 1309.75 555.922C1310.27 555.922 1310.89 555.792 1311.6 555.531L1312.24 557.678C1311.23 558.133 1310.26 558.361 1309.31 558.361C1308.04 558.361 1307.05 558.036 1306.34 557.385C1305.65 556.702 1305.31 555.71 1305.31 554.409C1305.31 554.182 1305.34 553.743 1305.41 553.092L1309.8 521.919L1312.63 521.528L1308.14 553.531ZM1338.6 537.92C1338.6 541.042 1337.07 543.368 1334.01 544.896C1330.96 546.392 1326.61 547.352 1320.99 547.775V548.067C1320.99 550.734 1321.56 552.702 1322.7 553.97C1323.87 555.239 1325.46 555.873 1327.48 555.873C1328.81 555.873 1330.03 555.678 1331.14 555.287C1332.27 554.865 1333.46 554.214 1334.7 553.336L1335.97 555.336C1334.6 556.344 1333.2 557.109 1331.77 557.629C1330.37 558.117 1328.88 558.361 1327.28 558.361C1324.35 558.361 1322.08 557.466 1320.45 555.678C1318.83 553.889 1318.01 551.368 1318.01 548.116C1318.01 545.547 1318.47 543.01 1319.38 540.506C1320.32 538.001 1321.77 535.92 1323.72 534.261C1325.7 532.603 1328.14 531.773 1331.04 531.773C1333.41 531.773 1335.27 532.359 1336.6 533.529C1337.93 534.668 1338.6 536.131 1338.6 537.92ZM1331.04 534.115C1328.11 534.115 1325.82 535.237 1324.16 537.481C1322.53 539.725 1321.52 542.408 1321.13 545.53C1326.01 545.14 1329.66 544.36 1332.06 543.189C1334.47 542.018 1335.67 540.294 1335.67 538.018C1335.67 536.912 1335.28 535.985 1334.5 535.237C1333.72 534.489 1332.57 534.115 1331.04 534.115ZM1360.17 553.531C1360.13 553.694 1360.12 553.921 1360.12 554.214C1360.12 554.8 1360.25 555.239 1360.51 555.531C1360.77 555.792 1361.19 555.922 1361.78 555.922C1362.3 555.922 1362.91 555.792 1363.63 555.531L1364.26 557.678C1363.26 558.133 1362.28 558.361 1361.34 558.361C1360.07 558.361 1359.08 558.036 1358.36 557.385C1357.68 556.702 1357.34 555.71 1357.34 554.409C1357.34 554.182 1357.37 553.743 1357.43 553.092L1361.82 521.919L1364.65 521.528L1360.17 553.531ZM1377.15 532.31L1373.54 557.824H1370.71L1374.32 532.31H1377.15ZM1376.86 525.187C1376.28 525.187 1375.8 525.025 1375.45 524.699C1375.09 524.342 1374.91 523.886 1374.91 523.333C1374.91 522.683 1375.12 522.146 1375.54 521.724C1376 521.301 1376.55 521.089 1377.2 521.089C1377.79 521.089 1378.26 521.268 1378.62 521.626C1378.97 521.951 1379.15 522.39 1379.15 522.943C1379.15 523.594 1378.93 524.13 1378.47 524.553C1378.05 524.976 1377.51 525.187 1376.86 525.187ZM1404.4 532.31L1391.96 557.824H1388.5L1383.03 532.31H1386.11L1390.55 555.287L1401.23 532.31H1404.4ZM1413.08 532.31L1409.47 557.824H1406.64L1410.25 532.31H1413.08ZM1412.78 525.187C1412.2 525.187 1411.73 525.025 1411.37 524.699C1411.01 524.342 1410.83 523.886 1410.83 523.333C1410.83 522.683 1411.04 522.146 1411.47 521.724C1411.92 521.301 1412.47 521.089 1413.12 521.089C1413.71 521.089 1414.18 521.268 1414.54 521.626C1414.9 521.951 1415.08 522.39 1415.08 522.943C1415.08 523.594 1414.85 524.13 1414.39 524.553C1413.97 524.976 1413.43 525.187 1412.78 525.187ZM1434.76 531.773C1436.68 531.773 1438.16 532.31 1439.2 533.383C1440.24 534.456 1440.76 535.985 1440.76 537.969C1440.76 538.554 1440.71 539.172 1440.62 539.823L1438.08 557.824H1435.25L1437.79 539.92C1437.85 539.53 1437.88 538.993 1437.88 538.31C1437.88 535.546 1436.65 534.164 1434.18 534.164C1430.89 534.164 1427.74 536.961 1424.71 542.555L1422.57 557.824H1419.74L1423.35 532.31H1425.79L1425.1 538.652C1426.44 536.44 1427.92 534.749 1429.54 533.578C1431.17 532.375 1432.91 531.773 1434.76 531.773ZM1460.91 531.773C1462.51 531.773 1463.94 531.952 1465.21 532.31C1466.48 532.668 1467.78 533.188 1469.11 533.871L1465.65 557.629C1464.64 564.491 1461.08 567.923 1454.96 567.923C1452.04 567.923 1449.22 567.126 1446.52 565.532L1447.64 563.386C1450.12 564.752 1452.52 565.435 1454.86 565.435C1459.45 565.435 1462.12 562.849 1462.87 557.678L1463.45 553.434C1462.47 554.767 1461.32 555.84 1459.99 556.653C1458.65 557.434 1457.24 557.824 1455.74 557.824C1453.24 557.824 1451.27 556.946 1449.84 555.19C1448.41 553.434 1447.68 551.059 1447.64 548.067C1447.64 545.53 1448.1 543.01 1449.01 540.506C1449.95 538.001 1451.42 535.92 1453.4 534.261C1455.38 532.603 1457.89 531.773 1460.91 531.773ZM1460.91 534.066C1458.57 534.066 1456.62 534.782 1455.06 536.213C1453.53 537.644 1452.41 539.432 1451.69 541.579C1450.98 543.725 1450.64 545.888 1450.67 548.067C1450.67 550.441 1451.16 552.263 1452.13 553.531C1453.11 554.8 1454.46 555.434 1456.18 555.434C1457.68 555.434 1459.06 554.978 1460.33 554.068C1461.6 553.157 1462.8 551.84 1463.94 550.116L1466.09 535.237C1464.52 534.456 1462.8 534.066 1460.91 534.066Z" fill="#1B420B"/>
<path d="M751.99 225.95L745.67 265.24H630.53V342.61H730.77V381.9H630.53V463.28H753.8V502.97H570.93V225.95H751.99Z" fill="#1B420B"/>
</svg>
