<svg width="118" height="46" viewBox="0 0 118 46" fill="none" xmlns="http://www.w3.org/2000/svg">
<path d="M102.801 39.0803H98.3568L98.2769 38.9424L98.03 38.5144L97.5652 37.7095L97.475 37.5527L96.9193 36.5902L96.3636 35.6285L96.3534 35.6105L95.8087 34.6668L95.253 33.7051L94.6973 32.7426L94.4292 32.2778L94.1416 31.7808L93.5858 30.8183L93.0309 29.8566L92.505 28.9451V28.8941H92.4752L91.9203 27.9324L91.3654 26.9707L90.8096 26.0082L90.5808 25.6116L90.2539 25.0457L89.6982 24.084L89.1425 25.0457L88.6566 25.8875L88.5876 26.0082L88.0319 26.9707L87.4762 27.9324L86.9212 28.8941L86.7323 29.221L86.3655 29.8558L85.8106 30.8183L85.2549 31.7808L84.8081 32.5537L84.6992 32.7426L84.1443 33.7043L83.5885 34.6668L83.0328 35.6285L82.8839 35.8864L82.4779 36.5902L81.9222 37.5519L81.8321 37.7095L81.3665 38.5144L81.0396 39.0803H76.5971L76.9239 38.5144L77.1121 38.1884L77.3887 37.7095L77.4789 37.5527L78.0346 36.5902L78.5895 35.6293V35.6285L79.0363 34.8557L79.1452 34.6668L79.7009 33.7043L80.2558 32.7426L80.8116 31.7808V31.7801L80.9605 31.5222L81.3665 30.8183L81.9222 29.8566L82.4779 28.8941L82.8839 28.1903L83.0328 27.9324L83.5885 26.9707L84.1443 26.0082L84.7 25.0457L84.8081 24.8576L85.2557 24.084L85.8106 23.1215L86.3655 22.1598L86.7323 21.5241L86.9212 21.1973L87.4762 20.2355L88.0319 19.2738L88.3587 18.7071L88.5876 18.3113L88.6566 18.1914L89.1433 17.3496H90.2539L90.5808 17.9155L90.8096 18.3113L91.0385 18.7071L91.3654 19.2738L91.9203 20.2355L92.4752 21.1973L92.505 21.2474L93.0309 22.1598L93.5866 23.1215L94.1423 24.084L94.4292 24.5809L94.6973 25.0457L95.253 26.0082L95.8087 26.9707L96.3534 27.9136V27.9496L96.3636 27.9324L96.9193 28.8941L97.475 29.8566L98.03 30.8183L98.2769 31.2455L98.5857 31.7801L99.1406 32.7426L99.6963 33.7043L100.201 34.5782V34.6668H100.252L100.807 35.6285L101.363 36.5902L101.918 37.5527L102.009 37.7095L102.125 37.9117L102.474 38.5144L102.801 39.0803Z" fill="white"/>
<path d="M102.853 39.1112H98.3388L92.4744 28.9532V28.925H92.458L89.6982 24.1454L81.0577 39.1112H76.5446L89.1261 17.3193H90.272L100.232 34.5707V34.6365H100.271L102.853 39.1112ZM98.3741 39.05H102.748L100.234 34.6976H100.171V34.5871L96.3636 27.9938L96.3229 28.0652V27.9217L90.2359 17.3797H89.1606L76.6496 39.05H81.0224L89.6982 24.0231L92.4933 28.8631H92.5356V28.936L98.3741 39.05Z" fill="white"/>
<path d="M73.0998 18.3764C74.2324 18.8153 75.278 19.4839 76.2381 20.3813L74.0952 22.8612C73.3397 22.2491 72.5849 21.8 71.8301 21.5139C71.0745 21.2286 70.2688 21.0852 69.4113 21.0852C68.4723 21.0852 67.7222 21.2842 67.161 21.6824C66.599 22.0806 66.3192 22.6465 66.3192 23.3817C66.3192 23.8919 66.4368 24.3105 66.6711 24.6365C66.9055 24.9634 67.3186 25.269 67.9111 25.5551C68.5029 25.8412 69.3909 26.1673 70.5744 26.5349C72.6766 27.2081 74.2481 28.0405 75.289 29.0297C76.3298 30.0196 76.8503 31.4328 76.8503 33.27C76.8503 34.5766 76.5234 35.7241 75.8705 36.714C75.2169 37.7039 74.2677 38.4799 73.023 39.0403C71.7776 39.6015 70.3181 39.8821 68.6455 39.8821C66.9721 39.8821 65.4813 39.6164 64.1755 39.0866C62.8689 38.5559 61.7466 37.8317 60.8076 36.9131L63.1033 34.372C63.9192 35.0665 64.7665 35.5916 65.6444 35.949C66.5214 36.3064 67.4816 36.4851 68.5225 36.4851C69.6245 36.4851 70.507 36.2304 71.1709 35.7202C71.834 35.2099 72.1655 34.4959 72.1655 33.5773C72.1655 33.0059 72.048 32.5317 71.8136 32.1539C71.5785 31.7761 71.1756 31.4344 70.6042 31.1287C70.0328 30.8222 69.2059 30.5064 68.1243 30.1795C65.8176 29.4655 64.1701 28.608 63.1801 27.6079C62.1902 26.6078 61.6956 25.302 61.6956 23.6889C61.6956 22.5054 62.0115 21.459 62.6448 20.5506C63.2773 19.643 64.1552 18.943 65.2776 18.4532C66.3999 17.9633 67.6752 17.7188 69.104 17.7188C70.6356 17.718 71.9672 17.9382 73.0998 18.3764Z" fill="white"/>
<path d="M114.646 18.1797C115.629 18.5513 116.589 19.1179 117.531 19.8806L115.291 22.4389C114.063 21.456 112.775 20.9638 111.425 20.9638C109.911 20.9638 108.71 21.5712 107.82 22.7853C106.93 23.9994 106.485 25.9009 106.485 28.4898C106.485 31.0183 106.93 32.89 107.82 34.1041C108.709 35.3182 109.921 35.9256 111.456 35.9256C112.253 35.9256 112.979 35.7806 113.634 35.4891C114.288 35.1983 114.973 34.7813 115.69 34.2397L117.776 36.7988C117.019 37.5614 116.083 38.1884 114.969 38.6799C113.853 39.1713 112.621 39.4174 111.271 39.4174C109.369 39.4174 107.702 38.9958 106.27 38.1532C104.838 37.3106 103.723 36.0714 102.926 34.4356C102.128 32.7999 101.729 30.8184 101.729 28.4906C101.729 26.223 102.138 24.2714 102.956 22.6356C103.774 20.9998 104.899 19.7559 106.331 18.9032C107.762 18.0504 109.379 17.624 111.179 17.624C112.509 17.6232 113.664 17.809 114.646 18.1797Z" fill="white"/>
<path d="M7.14031 10.3044L7.11131 10.3193L7.0823 10.3342L6.884 10.0112L6.91379 9.99634L6.94201 9.98145L7.11052 10.2558L7.14031 10.3044Z" fill="#DBA514"/>
<path d="M23.9371 14.0215L23.9144 13.9855L23.9731 13.9541L23.9951 13.9909L23.9371 14.0215Z" fill="#DBA514"/>
<path d="M1.84975 42.1055L0.832388 43.7687L0.116783 44.9373H9.84681L10.5624 43.7687L11.325 42.5232L11.5798 42.1055H1.84975Z" fill="#DBA514"/>
<path d="M1.80978 42.043L0 44.9994H9.886L11.6958 42.043H1.80978ZM0.232003 44.874L1.88973 42.1684H11.4646L9.8084 44.874H0.232003Z" fill="#DBA514"/>
<path d="M32.4295 19.9454L32.3652 19.8411L32.424 19.8105L32.4875 19.914L32.4295 19.9454Z" fill="white"/>
<path d="M30.0248 43.7687H27.5927L28.1806 44.7296V44.9373H24.445L25.159 43.7687L26.1788 42.1055H31.0438L30.0248 43.7687Z" fill="white"/>
<path d="M28.2143 44.968H24.3878L26.1592 42.0742H31.1018L30.0444 43.8001H27.6507L28.2143 44.7211V44.968ZM24.503 44.9053H28.1469V44.7376L27.5355 43.7367H30.006L30.9873 42.1361H26.1992L24.503 44.9053Z" fill="white"/>
<path d="M36.6087 42.1055V44.9373H29.3108L30.0248 43.7687L31.0438 42.1055H32.3943V43.7687H34.8906L35.9096 42.1055H36.6087Z" fill="white"/>
<path d="M36.6761 44.9994H29.1948L31.0046 42.043H32.4617V43.7062H34.8515L35.8704 42.043H36.6761V44.9994ZM29.4268 44.874H36.5421V42.1676H35.9496L34.9306 43.8308H32.3276V42.1676H31.0838L29.4268 44.874Z" fill="white"/>
<path d="M35.9095 42.1055L34.8906 43.7687H32.4585L32.3942 43.6637V42.1055H35.9095Z" fill="white"/>
<path d="M34.9298 43.8316H32.4193L32.3268 43.6803V42.043H36.0256L34.9298 43.8316ZM32.4977 43.7062H34.8514L35.7935 42.1684H32.4616V43.6474L32.4977 43.7062Z" fill="white"/>
<path d="M30.0248 43.7686L29.3108 44.9372H28.3068L28.1806 44.7295L27.5927 43.7686H30.0248Z" fill="white"/>
<path d="M29.35 44.9993H28.2676L27.4767 43.7061H30.1401L29.35 44.9993ZM28.346 44.8739H29.2716L29.9096 43.8307H27.7088L28.346 44.8739Z" fill="white"/>
<path d="M33.6757 21.9155L32.4585 23.9016H32.3942V24.0066L31.2421 25.8893L30.0264 27.8755L28.8099 29.8632L28.1805 30.8891L27.5927 31.8493L26.3763 33.8354L25.1606 31.8493H22.7269L23.9441 29.8616L23.9661 29.8992V29.8248L25.159 27.8755L26.3763 25.8877L27.5927 23.9016L28.1805 22.9422L28.8084 21.9155L28.1805 20.8887L27.5927 19.9293L26.3763 17.9416L25.159 15.9555L23.9661 14.0062V13.931L23.9441 13.9694L22.7269 11.9817L21.5105 9.99553L20.2932 8.00783L19.7532 7.12606L19.0783 6.02169L17.8611 4.03556L17.1455 2.86613L16.6447 2.04863L15.5395 0.243556V0.0625H20.2932L21.5105 2.04863L22.0097 2.86613L22.7269 4.03556L23.9441 6.02169V6.02326L23.9661 6.06009L25.159 8.00783L26.3763 9.99553L27.5927 11.9817L28.1805 12.9426L28.8084 13.9678V13.9694L31.2421 17.9416L32.3942 19.8259V19.9293H32.4585L33.6757 21.9155Z" fill="white"/>
<path d="M26.3763 33.9618L25.1214 31.9114H22.6117L28.7308 21.9149L15.4721 0.260216V0H20.3332L32.4624 19.8096V19.8676H32.4985L33.7533 21.9165L32.4985 23.9653H32.4624V24.0241L26.3763 33.9618ZM22.8429 31.7868H25.1998L26.3763 33.7094L32.3276 23.9912V23.8399H32.4201L33.5989 21.9165L32.4201 19.993H32.3276V19.8433L20.254 0.124621H15.6061V0.226513L23.9418 13.8402L24.0327 13.6843V13.9892L28.8852 21.9149L24.0327 29.8406V30.1455L23.9418 29.9895L22.8429 31.7868Z" fill="white"/>
<path d="M26.3763 33.8357L25.159 35.8227L23.9661 37.7727L23.9441 37.8088L22.7269 39.7957L21.5105 41.7826L20.2948 43.7688L19.7532 44.6529L19.5792 44.9374H14.7118L15.4274 43.7688H15.5395V43.5877L16.6447 41.7819L17.8611 39.7957L19.0768 37.8088L19.7532 36.7052L20.2932 35.8227L21.5105 33.8357L22.7269 31.8496H25.1606L26.3763 33.8357Z" fill="white"/>
<path d="M19.6184 45.0005H14.5958L15.3882 43.7073H15.4713V43.5724L22.6877 31.7881H25.1998L26.4531 33.8369L19.6184 45.0005ZM14.8278 44.8751H19.54L26.2987 33.8361L25.1214 31.9127H22.7661L15.6061 43.6046V43.8319H15.4666L14.8278 44.8751Z" fill="white"/>
<path d="M36.6087 0.0634766V2.86711H26.8756L26.3763 2.05039L25.1591 0.0634766H32.3943V0.166938L32.4585 0.0634766H36.6087Z" fill="white"/>
<path d="M36.6424 2.89759H26.8559L26.3465 2.0652L25.101 0.03125H32.4279V0.048496L32.4389 0.03125H36.6424V2.89759ZM26.8951 2.83488H36.575V0.0931681H32.4781L32.3613 0.28285V0.0931681H25.2178L26.8951 2.83488Z" fill="white"/>
<path d="M7.11056 10.2559V10.3186L7.11213 10.3201L7.14034 10.3052L7.11056 10.2559ZM1.88657 42.0442L1.84895 42.1054H11.5798L11.6174 42.0442H1.88657Z" fill="#DBA514"/>
<path d="M23.9434 21.9147L22.7277 23.9008L21.5097 25.8877L20.3128 27.8433L20.294 27.8747L19.7524 28.7564L19.7187 28.8121L19.0768 29.8608V29.8616L17.8619 31.8477L16.6447 33.8339L15.5387 35.6405L15.4274 35.8216L14.2125 37.8069V37.8077L11.7789 41.7807L11.6174 42.0433H1.88659L2.04727 41.7815L2.89769 40.3934L3.2645 39.7938L4.48017 37.8077L5.69662 35.8216L6.91228 33.8339L7.11058 33.5125L8.12951 31.8477L9.34675 29.8608L10.5632 27.8747L11.325 26.63L11.7789 25.8877L12.9953 23.9008L14.2125 21.9147L12.9953 19.9278L11.7789 17.9409L11.325 17.201L10.5616 15.9547L9.34675 13.9686L8.12951 11.9809L7.11137 10.3185L7.14037 10.3036L7.11058 10.255V9.67182L6.91228 9.99474L5.69662 8.00704L4.48017 6.0209L3.2645 4.03556L2.89769 3.43595L2.54811 2.86535L2.04727 2.04707L0.830818 0.0625H10.5632L11.325 1.30638L11.7789 2.04707L12.2805 2.86535L12.9953 4.03556L14.2125 6.0209L15.4274 8.00704L15.5387 8.18888L16.6447 9.99474L17.8619 11.9809L19.0783 13.9686L19.7524 15.0722L20.2956 15.9547L21.5097 17.9409L22.7277 19.9278L23.9434 21.9147Z" fill="#DBA514"/>
<path d="M20.3128 27.8438L20.294 27.8751L19.7524 28.7577L19.7187 28.8125V28.876L20.352 27.8438H20.3128Z" fill="#DBA514"/>
<path d="M7.11057 9.67188V10.255L6.94205 9.98069L6.91384 9.99558L6.91227 9.9948L7.11057 9.67188Z" fill="#DBA514"/>
<path d="M7.12626 10.3107L6.93659 10.0018L6.91072 10.0152L6.89348 9.99792L6.89896 9.98616L7.12548 9.61621V10.3107H7.12626ZM6.94991 9.96344L7.09491 10.1994V9.72673L6.94991 9.96344Z" fill="#DBA514"/>
<path d="M67.0665 44.1583C67.018 44.1583 66.9785 44.143 66.9479 44.1124C66.9173 44.0792 66.9021 44.0385 66.9021 43.99C66.9021 43.9339 66.9199 43.8868 66.9556 43.8486C66.9938 43.8103 67.041 43.7912 67.0971 43.7912C67.148 43.7912 67.1888 43.8078 67.2194 43.8409C67.25 43.8715 67.2653 43.911 67.2653 43.9594C67.2653 44.0155 67.2462 44.0627 67.2079 44.1009C67.1697 44.1392 67.1226 44.1583 67.0665 44.1583ZM67.8618 44.1583C67.8134 44.1583 67.7739 44.143 67.7433 44.1124C67.7127 44.0792 67.6974 44.0385 67.6974 43.99C67.6974 43.9339 67.7153 43.8868 67.7509 43.8486C67.7892 43.8103 67.8363 43.7912 67.8924 43.7912C67.9434 43.7912 67.9842 43.8078 68.0148 43.8409C68.0454 43.8715 68.0607 43.911 68.0607 43.9594C68.0607 44.0155 68.0415 44.0627 68.0033 44.1009C67.9651 44.1392 67.9179 44.1583 67.8618 44.1583ZM68.6572 44.1583C68.6088 44.1583 68.5693 44.143 68.5387 44.1124C68.5081 44.0792 68.4928 44.0385 68.4928 43.99C68.4928 43.9339 68.5106 43.8868 68.5463 43.8486C68.5845 43.8103 68.6317 43.7912 68.6878 43.7912C68.7388 43.7912 68.7796 43.8078 68.8101 43.8409C68.8407 43.8715 68.856 43.911 68.856 43.9594C68.856 44.0155 68.8369 44.0627 68.7987 44.1009C68.7604 44.1392 68.7133 44.1583 68.6572 44.1583ZM70.3828 41.4587C70.1432 41.4587 70.0081 41.5722 69.9775 41.799L69.9316 42.1164H70.4554L70.4057 42.2961H69.9087L69.6639 44.0512C69.6384 44.2245 69.6002 44.3622 69.5492 44.4642C69.4982 44.5661 69.432 44.6477 69.3504 44.7089C69.2714 44.7701 69.1605 44.8325 69.0177 44.8962L68.9489 44.7242C69.0534 44.6757 69.1363 44.6273 69.1974 44.5789C69.2586 44.5304 69.3096 44.4642 69.3504 44.38C69.3912 44.2985 69.4218 44.1863 69.4422 44.0436L69.6869 42.2961H69.3389L69.3657 42.1164H69.7136L69.7595 41.7837C69.7799 41.6257 69.8449 41.5008 69.9545 41.409C70.0642 41.3172 70.2044 41.2714 70.3752 41.2714C70.4593 41.2714 70.537 41.2828 70.6084 41.3058C70.6798 41.3287 70.7524 41.3631 70.8264 41.409L70.7384 41.562C70.6211 41.4931 70.5026 41.4587 70.3828 41.4587ZM71.2836 44.1583C71.0541 44.1583 70.8757 44.0869 70.7482 43.9441C70.6233 43.8014 70.5609 43.6026 70.5609 43.3476C70.5609 43.1565 70.594 42.964 70.6603 42.7703C70.7266 42.574 70.8336 42.4096 70.9815 42.277C71.1319 42.1419 71.3243 42.0743 71.5589 42.0743C71.7908 42.0743 71.9693 42.1444 72.0942 42.2846C72.2191 42.4249 72.2815 42.6224 72.2815 42.8773C72.2815 43.066 72.2484 43.2584 72.1821 43.4547C72.1184 43.651 72.0113 43.818 71.8609 43.9556C71.7105 44.0907 71.5181 44.1583 71.2836 44.1583ZM71.2912 43.9709C71.4722 43.9709 71.6188 43.9123 71.7309 43.795C71.8456 43.6778 71.9272 43.535 71.9756 43.3668C72.0241 43.196 72.0483 43.0277 72.0483 42.862C72.0483 42.6632 72.0062 42.5128 71.9221 42.4108C71.838 42.3089 71.7156 42.2579 71.555 42.2579C71.3715 42.2579 71.2224 42.3178 71.1077 42.4376C70.993 42.5549 70.9114 42.6989 70.8629 42.8697C70.8145 43.0405 70.7903 43.2062 70.7903 43.3668C70.7903 43.5656 70.8336 43.716 70.9203 43.818C71.007 43.9199 71.1306 43.9709 71.2912 43.9709ZM73.5026 42.0743C73.7397 42.0743 73.9449 42.1495 74.1182 42.2999L73.9997 42.4338C73.9232 42.3751 73.8455 42.3318 73.7664 42.3038C73.6874 42.2757 73.5995 42.2617 73.5026 42.2617C73.3598 42.2617 73.2451 42.2923 73.1585 42.3535C73.0718 42.4121 73.0285 42.4937 73.0285 42.5982C73.0285 42.6849 73.0603 42.7562 73.124 42.8123C73.1903 42.8659 73.305 42.9168 73.4682 42.9653C73.6645 43.0265 73.8059 43.1017 73.8926 43.1909C73.9818 43.2801 74.0264 43.3974 74.0264 43.5427C74.0264 43.7287 73.9563 43.8779 73.8161 43.99C73.6759 44.1022 73.4873 44.1583 73.2502 44.1583C73.0947 44.1583 72.9596 44.1341 72.8449 44.0856C72.7328 44.0372 72.6321 43.9709 72.5428 43.8868L72.669 43.7568C72.7557 43.8282 72.8449 43.8817 72.9367 43.9174C73.0285 43.9531 73.133 43.9709 73.2502 43.9709C73.4236 43.9709 73.5574 43.9339 73.6517 43.86C73.7486 43.7835 73.797 43.6841 73.797 43.5618C73.797 43.4547 73.7639 43.3719 73.6976 43.3132C73.6339 43.2546 73.5141 43.1972 73.3382 43.1412C73.1419 43.08 73.003 43.0086 72.9214 42.927C72.8424 42.8429 72.8029 42.7371 72.8029 42.6097C72.8029 42.5128 72.8309 42.4236 72.887 42.342C72.9431 42.2604 73.0234 42.1954 73.1279 42.147C73.2349 42.0986 73.3598 42.0743 73.5026 42.0743ZM74.8215 43.623C74.8164 43.6688 74.8139 43.7007 74.8139 43.7185C74.8139 43.8842 74.8929 43.9671 75.051 43.9671C75.1478 43.9671 75.2562 43.9352 75.376 43.8715L75.4525 44.0359C75.3148 44.1175 75.172 44.1583 75.0242 44.1583C74.8891 44.1583 74.7833 44.1226 74.7068 44.0512C74.6304 43.9773 74.5921 43.8728 74.5921 43.7377C74.5921 43.7122 74.5947 43.6739 74.5998 43.623L74.7871 42.2961H74.4506L74.4774 42.1164H74.8177L74.9286 41.6308L75.1045 41.6117L75.0318 42.1164H75.548L75.4945 42.2961H75.0089L74.8215 43.623ZM77.3312 42.5561C77.3312 42.8009 77.2114 42.9831 76.9718 43.1029C76.7321 43.2202 76.3918 43.2954 75.9508 43.3285V43.3515C75.9508 43.5605 75.9954 43.7147 76.0847 43.8141C76.1764 43.9136 76.3013 43.9633 76.4594 43.9633C76.5639 43.9633 76.6595 43.948 76.7462 43.9174C76.8354 43.8842 76.9284 43.8333 77.0253 43.7644L77.1247 43.9212C77.0176 44.0002 76.908 44.0601 76.7959 44.1009C76.6862 44.1392 76.569 44.1583 76.4441 44.1583C76.2147 44.1583 76.0362 44.0882 75.9088 43.948C75.7813 43.8078 75.7176 43.6102 75.7176 43.3553C75.7176 43.1539 75.7533 42.9551 75.8246 42.7588C75.8986 42.5625 76.012 42.3994 76.1649 42.2694C76.3204 42.1393 76.5116 42.0743 76.7385 42.0743C76.9246 42.0743 77.0699 42.1202 77.1744 42.212C77.2789 42.3012 77.3312 42.4159 77.3312 42.5561ZM76.7385 42.2579C76.5091 42.2579 76.3294 42.3458 76.1994 42.5217C76.0719 42.6976 75.9929 42.9079 75.9623 43.1526C76.3447 43.122 76.6302 43.0609 76.8188 42.9691C77.0074 42.8773 77.1018 42.7422 77.1018 42.5638C77.1018 42.4771 77.0712 42.4045 77.01 42.3458C76.9488 42.2872 76.8583 42.2579 76.7385 42.2579ZM78.7716 42.0743C78.8455 42.0743 78.9092 42.0833 78.9627 42.1011L78.9016 42.3114C78.8557 42.2961 78.8021 42.2885 78.741 42.2885C78.6008 42.2885 78.4797 42.3458 78.3777 42.4605C78.2783 42.5753 78.1853 42.7473 78.0986 42.9767L77.9342 44.1162H77.7124L77.9953 42.1164H78.1865L78.1368 42.602C78.2923 42.2502 78.5039 42.0743 78.7716 42.0743ZM79.6361 42.1164L79.3531 44.1162H79.1313L79.4143 42.1164H79.6361ZM79.6131 41.5581C79.5673 41.5581 79.5303 41.5454 79.5022 41.5199C79.4742 41.4919 79.4602 41.4562 79.4602 41.4128C79.4602 41.3619 79.4768 41.3198 79.5099 41.2867C79.5456 41.2535 79.5889 41.237 79.6399 41.237C79.6858 41.237 79.7227 41.251 79.7508 41.279C79.7788 41.3045 79.7929 41.3389 79.7929 41.3823C79.7929 41.4332 79.775 41.4753 79.7393 41.5084C79.7062 41.5416 79.6641 41.5581 79.6131 41.5581ZM81.3359 42.0743C81.4863 42.0743 81.6023 42.1164 81.6839 42.2005C81.7655 42.2846 81.8062 42.4045 81.8062 42.56C81.8062 42.6058 81.8024 42.6543 81.7948 42.7053L81.5959 44.1162H81.3742L81.573 42.7129C81.5781 42.6823 81.5806 42.6403 81.5806 42.5867C81.5806 42.37 81.4838 42.2617 81.29 42.2617C81.0326 42.2617 80.7853 42.4809 80.5482 42.9194L80.38 44.1162H80.1582L80.4412 42.1164H80.6324L80.5788 42.6135C80.6833 42.4401 80.7993 42.3076 80.9268 42.2158C81.0542 42.1215 81.1906 42.0743 81.3359 42.0743ZM83.3857 42.0743C83.5106 42.0743 83.6227 42.0884 83.7221 42.1164C83.8216 42.1444 83.9235 42.1852 84.028 42.2388L83.7566 44.1009C83.6775 44.6388 83.3984 44.9077 82.9192 44.9077C82.6897 44.9077 82.4692 44.8453 82.2577 44.7204L82.3456 44.5521C82.5393 44.6592 82.728 44.7127 82.9115 44.7127C83.2709 44.7127 83.48 44.5101 83.5386 44.1047L83.5845 43.7721C83.508 43.8766 83.4175 43.9607 83.313 44.0244C83.2085 44.0856 83.0976 44.1162 82.9803 44.1162C82.7841 44.1162 82.6298 44.0474 82.5177 43.9097C82.4055 43.7721 82.3481 43.586 82.3456 43.3515C82.3456 43.1526 82.3813 42.9551 82.4527 42.7588C82.5266 42.5625 82.6413 42.3994 82.7968 42.2694C82.9523 42.1393 83.1486 42.0743 83.3857 42.0743ZM83.3857 42.2541C83.2021 42.2541 83.0492 42.3101 82.9268 42.4223C82.807 42.5345 82.7191 42.6747 82.663 42.8429C82.6069 43.0112 82.5801 43.1807 82.5827 43.3515C82.5827 43.5376 82.6209 43.6803 82.6974 43.7797C82.7739 43.8791 82.8796 43.9288 83.0148 43.9288C83.132 43.9288 83.2404 43.8932 83.3398 43.8218C83.4392 43.7504 83.5335 43.6472 83.6227 43.5121L83.791 42.3458C83.6686 42.2846 83.5335 42.2541 83.3857 42.2541ZM86.3442 42.0743C86.5812 42.0743 86.7864 42.1495 86.9598 42.2999L86.8412 42.4338C86.7648 42.3751 86.687 42.3318 86.608 42.3038C86.529 42.2757 86.441 42.2617 86.3442 42.2617C86.2014 42.2617 86.0867 42.2923 86 42.3535C85.9134 42.4121 85.87 42.4937 85.87 42.5982C85.87 42.6849 85.9019 42.7562 85.9656 42.8123C86.0319 42.8659 86.1466 42.9168 86.3098 42.9653C86.506 43.0265 86.6475 43.1017 86.7342 43.1909C86.8234 43.2801 86.868 43.3974 86.868 43.5427C86.868 43.7287 86.7979 43.8779 86.6577 43.99C86.5175 44.1022 86.3289 44.1583 86.0918 44.1583C85.9363 44.1583 85.8012 44.1341 85.6865 44.0856C85.5743 44.0372 85.4736 43.9709 85.3844 43.8868L85.5106 43.7568C85.5973 43.8282 85.6865 43.8817 85.7783 43.9174C85.87 43.9531 85.9745 43.9709 86.0918 43.9709C86.2651 43.9709 86.399 43.9339 86.4933 43.86C86.5902 43.7835 86.6386 43.6841 86.6386 43.5618C86.6386 43.4547 86.6055 43.3719 86.5392 43.3132C86.4754 43.2546 86.3556 43.1972 86.1797 43.1412C85.9835 43.08 85.8445 43.0086 85.763 42.927C85.6839 42.8429 85.6444 42.7371 85.6444 42.6097C85.6444 42.5128 85.6725 42.4236 85.7285 42.342C85.7846 42.2604 85.8649 42.1954 85.9694 42.147C86.0765 42.0986 86.2014 42.0743 86.3442 42.0743ZM87.9002 44.1583C87.7498 44.1583 87.6325 44.1162 87.5484 44.0321C87.4668 43.948 87.426 43.8294 87.426 43.6765C87.426 43.6331 87.4299 43.5873 87.4375 43.5388L87.6363 42.1164H87.8581L87.6593 43.5312C87.6542 43.5618 87.6516 43.6026 87.6516 43.6535C87.6516 43.8677 87.7485 43.9747 87.9422 43.9747C88.0824 43.9747 88.2124 43.9174 88.3323 43.8027C88.4546 43.6854 88.5642 43.5312 88.6611 43.34L88.8332 42.1164H89.0549L88.772 44.1162H88.5884L88.642 43.6077C88.5502 43.7784 88.4419 43.9136 88.317 44.013C88.1946 44.1098 88.0557 44.1583 87.9002 44.1583ZM90.3135 42.0743C90.5506 42.0743 90.7558 42.1495 90.9291 42.2999L90.8106 42.4338C90.7341 42.3751 90.6564 42.3318 90.5773 42.3038C90.4983 42.2757 90.4104 42.2617 90.3135 42.2617C90.1708 42.2617 90.056 42.2923 89.9694 42.3535C89.8827 42.4121 89.8394 42.4937 89.8394 42.5982C89.8394 42.6849 89.8712 42.7562 89.935 42.8123C90.0012 42.8659 90.116 42.9168 90.2791 42.9653C90.4754 43.0265 90.6169 43.1017 90.7035 43.1909C90.7928 43.2801 90.8374 43.3974 90.8374 43.5427C90.8374 43.7287 90.7673 43.8779 90.6271 43.99C90.4869 44.1022 90.2982 44.1583 90.0611 44.1583C89.9056 44.1583 89.7705 44.1341 89.6558 44.0856C89.5437 44.0372 89.443 43.9709 89.3538 43.8868L89.4799 43.7568C89.5666 43.8282 89.6558 43.8817 89.7476 43.9174C89.8394 43.9531 89.9439 43.9709 90.0611 43.9709C90.2345 43.9709 90.3683 43.9339 90.4626 43.86C90.5595 43.7835 90.6079 43.6841 90.6079 43.5618C90.6079 43.4547 90.5748 43.3719 90.5085 43.3132C90.4448 43.2546 90.325 43.1972 90.1491 43.1412C89.9528 43.08 89.8139 43.0086 89.7323 42.927C89.6533 42.8429 89.6138 42.7371 89.6138 42.6097C89.6138 42.5128 89.6418 42.4236 89.6979 42.342C89.754 42.2604 89.8343 42.1954 89.9388 42.147C90.0459 42.0986 90.1708 42.0743 90.3135 42.0743ZM91.6325 43.623C91.6274 43.6688 91.6248 43.7007 91.6248 43.7185C91.6248 43.8842 91.7038 43.9671 91.8619 43.9671C91.9587 43.9671 92.0671 43.9352 92.1869 43.8715L92.2634 44.0359C92.1257 44.1175 91.983 44.1583 91.8351 44.1583C91.7 44.1583 91.5942 44.1226 91.5177 44.0512C91.4413 43.9773 91.403 43.8728 91.403 43.7377C91.403 43.7122 91.4056 43.6739 91.4107 43.623L91.598 42.2961H91.2616L91.2883 42.1164H91.6286L91.7395 41.6308L91.9154 41.6117L91.8428 42.1164H92.359L92.3054 42.2961H91.8198L91.6325 43.623ZM93.5532 42.0743C93.6782 42.0743 93.7903 42.0884 93.8897 42.1164C93.9892 42.1444 94.0911 42.1852 94.1956 42.2388L93.9853 43.6803C93.9802 43.7083 93.9777 43.7466 93.9777 43.795C93.9777 43.8486 93.9866 43.8919 94.0044 43.925C94.0248 43.9556 94.058 43.9811 94.1039 44.0015L94.0389 44.1583C93.9496 44.1379 93.8821 44.1009 93.8362 44.0474C93.7903 43.9913 93.7686 43.9072 93.7712 43.795C93.6947 43.9072 93.603 43.9964 93.4959 44.0627C93.3914 44.1264 93.2779 44.1583 93.1556 44.1583C92.9567 44.1583 92.8012 44.0894 92.6891 43.9518C92.5795 43.8116 92.5247 43.6217 92.5247 43.3821C92.5247 43.1832 92.5604 42.9831 92.6317 42.7817C92.7031 42.5804 92.8153 42.4121 92.9682 42.277C93.1237 42.1419 93.3187 42.0743 93.5532 42.0743ZM93.5609 42.2541C93.3799 42.2541 93.2282 42.3127 93.1059 42.43C92.9861 42.5472 92.8981 42.6925 92.842 42.8659C92.7885 43.0392 92.7617 43.2113 92.7617 43.3821C92.7617 43.5758 92.7987 43.7224 92.8726 43.8218C92.9466 43.9212 93.0523 43.9709 93.19 43.9709C93.3098 43.9709 93.4169 43.9352 93.5112 43.8638C93.6081 43.7925 93.6998 43.688 93.7865 43.5503L93.9586 42.3458C93.8362 42.2846 93.7036 42.2541 93.5609 42.2541ZM95.2073 42.1164L94.9243 44.1162H94.7025L94.9855 42.1164H95.2073ZM95.1843 41.5581C95.1384 41.5581 95.1015 41.5454 95.0734 41.5199C95.0454 41.4919 95.0314 41.4562 95.0314 41.4128C95.0314 41.3619 95.048 41.3198 95.0811 41.2867C95.1168 41.2535 95.1601 41.237 95.2111 41.237C95.257 41.237 95.2939 41.251 95.322 41.279C95.35 41.3045 95.364 41.3389 95.364 41.3823C95.364 41.4332 95.3462 41.4753 95.3105 41.5084C95.2774 41.5416 95.2353 41.5581 95.1843 41.5581ZM96.9071 42.0743C97.0575 42.0743 97.1735 42.1164 97.2551 42.2005C97.3367 42.2846 97.3774 42.4045 97.3774 42.56C97.3774 42.6058 97.3736 42.6543 97.366 42.7053L97.1671 44.1162H96.9454L97.1442 42.7129C97.1493 42.6823 97.1518 42.6403 97.1518 42.5867C97.1518 42.37 97.055 42.2617 96.8612 42.2617C96.6038 42.2617 96.3565 42.4809 96.1194 42.9194L95.9512 44.1162H95.7294L96.0124 42.1164H96.2036L96.15 42.6135C96.2545 42.4401 96.3705 42.3076 96.498 42.2158C96.6254 42.1215 96.7618 42.0743 96.9071 42.0743ZM98.9416 42.0743C99.0665 42.0743 99.1786 42.0884 99.278 42.1164C99.3775 42.1444 99.4794 42.1852 99.5839 42.2388L99.3736 43.6803C99.3685 43.7083 99.366 43.7466 99.366 43.795C99.366 43.8486 99.3749 43.8919 99.3928 43.925C99.4131 43.9556 99.4463 43.9811 99.4922 44.0015L99.4272 44.1583C99.3379 44.1379 99.2704 44.1009 99.2245 44.0474C99.1786 43.9913 99.157 43.9072 99.1595 43.795C99.083 43.9072 98.9913 43.9964 98.8842 44.0627C98.7797 44.1264 98.6662 44.1583 98.5439 44.1583C98.3451 44.1583 98.1896 44.0894 98.0774 43.9518C97.9678 43.8116 97.913 43.6217 97.913 43.3821C97.913 43.1832 97.9487 42.9831 98.02 42.7817C98.0914 42.5804 98.2036 42.4121 98.3565 42.277C98.512 42.1419 98.707 42.0743 98.9416 42.0743ZM98.9492 42.2541C98.7682 42.2541 98.6165 42.3127 98.4942 42.43C98.3744 42.5472 98.2864 42.6925 98.2303 42.8659C98.1768 43.0392 98.15 43.2113 98.15 43.3821C98.15 43.5758 98.187 43.7224 98.2609 43.8218C98.3349 43.9212 98.4406 43.9709 98.5783 43.9709C98.6981 43.9709 98.8052 43.9352 98.8995 43.8638C98.9964 43.7925 99.0881 43.688 99.1748 43.5503L99.3469 42.3458C99.2245 42.2846 99.092 42.2541 98.9492 42.2541ZM101.192 42.0743C101.383 42.0743 101.531 42.1406 101.636 42.2732C101.743 42.4032 101.796 42.5893 101.796 42.8314C101.796 43.0354 101.762 43.2393 101.693 43.4432C101.624 43.6446 101.512 43.8141 101.357 43.9518C101.204 44.0894 101.006 44.1583 100.764 44.1583C100.654 44.1583 100.55 44.1481 100.45 44.1277C100.353 44.1098 100.239 44.0767 100.106 44.0283L100.492 41.302L100.714 41.2714L100.565 42.3649C100.759 42.1712 100.968 42.0743 101.192 42.0743ZM101.146 42.2617C101.026 42.2617 100.919 42.291 100.825 42.3497C100.731 42.4057 100.633 42.4873 100.531 42.5944L100.351 43.8906C100.42 43.9187 100.486 43.939 100.55 43.9518C100.613 43.9645 100.689 43.9709 100.775 43.9709C100.961 43.9709 101.113 43.911 101.23 43.7912C101.35 43.6688 101.436 43.5197 101.487 43.3438C101.54 43.1679 101.567 42.9933 101.567 42.82C101.567 42.6313 101.53 42.4911 101.456 42.3994C101.385 42.3076 101.281 42.2617 101.146 42.2617ZM102.531 43.7797C102.529 43.7925 102.528 43.8103 102.528 43.8333C102.528 43.8791 102.538 43.9136 102.558 43.9365C102.579 43.9569 102.612 43.9671 102.658 43.9671C102.698 43.9671 102.747 43.9569 102.803 43.9365L102.853 44.1047C102.774 44.1404 102.697 44.1583 102.623 44.1583C102.524 44.1583 102.446 44.1328 102.39 44.0818C102.336 44.0283 102.31 43.9505 102.31 43.8486C102.31 43.8307 102.312 43.7963 102.317 43.7453L102.661 41.302L102.883 41.2714L102.531 43.7797ZM104.919 42.5561C104.919 42.8009 104.799 42.9831 104.559 43.1029C104.32 43.2202 103.979 43.2954 103.538 43.3285V43.3515C103.538 43.5605 103.583 43.7147 103.672 43.8141C103.764 43.9136 103.889 43.9633 104.047 43.9633C104.151 43.9633 104.247 43.948 104.334 43.9174C104.423 43.8842 104.516 43.8333 104.613 43.7644L104.712 43.9212C104.605 44.0002 104.496 44.0601 104.383 44.1009C104.274 44.1392 104.157 44.1583 104.032 44.1583C103.802 44.1583 103.624 44.0882 103.496 43.948C103.369 43.8078 103.305 43.6102 103.305 43.3553C103.305 43.1539 103.341 42.9551 103.412 42.7588C103.486 42.5625 103.6 42.3994 103.752 42.2694C103.908 42.1393 104.099 42.0743 104.326 42.0743C104.512 42.0743 104.657 42.1202 104.762 42.212C104.866 42.3012 104.919 42.4159 104.919 42.5561ZM104.326 42.2579C104.097 42.2579 103.917 42.3458 103.787 42.5217C103.659 42.6976 103.58 42.9079 103.55 43.1526C103.932 43.122 104.218 43.0609 104.406 42.9691C104.595 42.8773 104.689 42.7422 104.689 42.5638C104.689 42.4771 104.659 42.4045 104.598 42.3458C104.536 42.2872 104.446 42.2579 104.326 42.2579ZM106.609 43.7797C106.606 43.7925 106.605 43.8103 106.605 43.8333C106.605 43.8791 106.615 43.9136 106.636 43.9365C106.656 43.9569 106.689 43.9671 106.735 43.9671C106.776 43.9671 106.824 43.9569 106.881 43.9365L106.93 44.1047C106.851 44.1404 106.775 44.1583 106.701 44.1583C106.601 44.1583 106.524 44.1328 106.468 44.0818C106.414 44.0283 106.387 43.9505 106.387 43.8486C106.387 43.8307 106.39 43.7963 106.395 43.7453L106.739 41.302L106.961 41.2714L106.609 43.7797ZM107.941 42.1164L107.658 44.1162H107.436L107.719 42.1164H107.941ZM107.918 41.5581C107.872 41.5581 107.835 41.5454 107.807 41.5199C107.779 41.4919 107.765 41.4562 107.765 41.4128C107.765 41.3619 107.781 41.3198 107.814 41.2867C107.85 41.2535 107.893 41.237 107.944 41.237C107.99 41.237 108.027 41.251 108.055 41.279C108.083 41.3045 108.097 41.3389 108.097 41.3823C108.097 41.4332 108.079 41.4753 108.044 41.5084C108.011 41.5416 107.969 41.5581 107.918 41.5581ZM110.076 42.1164L109.101 44.1162H108.83L108.402 42.1164H108.642L108.99 43.9174L109.828 42.1164H110.076ZM110.756 42.1164L110.473 44.1162H110.251L110.534 42.1164H110.756ZM110.733 41.5581C110.687 41.5581 110.65 41.5454 110.622 41.5199C110.594 41.4919 110.58 41.4562 110.58 41.4128C110.58 41.3619 110.597 41.3198 110.63 41.2867C110.666 41.2535 110.709 41.237 110.76 41.237C110.806 41.237 110.843 41.251 110.871 41.279C110.899 41.3045 110.913 41.3389 110.913 41.3823C110.913 41.4332 110.895 41.4753 110.859 41.5084C110.826 41.5416 110.784 41.5581 110.733 41.5581ZM112.456 42.0743C112.606 42.0743 112.722 42.1164 112.804 42.2005C112.885 42.2846 112.926 42.4045 112.926 42.56C112.926 42.6058 112.922 42.6543 112.915 42.7053L112.716 44.1162H112.494L112.693 42.7129C112.698 42.6823 112.701 42.6403 112.701 42.5867C112.701 42.37 112.604 42.2617 112.41 42.2617C112.153 42.2617 111.905 42.4809 111.668 42.9194L111.5 44.1162H111.278L111.561 42.1164H111.752L111.699 42.6135C111.803 42.4401 111.919 42.3076 112.047 42.2158C112.174 42.1215 112.311 42.0743 112.456 42.0743ZM114.506 42.0743C114.631 42.0743 114.743 42.0884 114.842 42.1164C114.942 42.1444 115.044 42.1852 115.148 42.2388L114.877 44.1009C114.798 44.6388 114.518 44.9077 114.039 44.9077C113.81 44.9077 113.589 44.8453 113.378 44.7204L113.466 44.5521C113.659 44.6592 113.848 44.7127 114.031 44.7127C114.391 44.7127 114.6 44.5101 114.659 44.1047L114.704 43.7721C114.628 43.8766 114.538 43.9607 114.433 44.0244C114.328 44.0856 114.218 44.1162 114.1 44.1162C113.904 44.1162 113.75 44.0474 113.638 43.9097C113.525 43.7721 113.468 43.586 113.466 43.3515C113.466 43.1526 113.501 42.9551 113.573 42.7588C113.647 42.5625 113.761 42.3994 113.917 42.2694C114.072 42.1393 114.269 42.0743 114.506 42.0743ZM114.506 42.2541C114.322 42.2541 114.169 42.3101 114.047 42.4223C113.927 42.5345 113.839 42.6747 113.783 42.8429C113.727 43.0112 113.7 43.1807 113.703 43.3515C113.703 43.5376 113.741 43.6803 113.817 43.7797C113.894 43.8791 114 43.9288 114.135 43.9288C114.252 43.9288 114.36 43.8932 114.46 43.8218C114.559 43.7504 114.653 43.6472 114.743 43.5121L114.911 42.3458C114.789 42.2846 114.653 42.2541 114.506 42.2541Z" fill="white"/>
<path d="M58.9406 17.71L58.4452 20.7895H49.4206V26.8537H57.2774V29.9332H49.4206V36.3118H59.0824V39.4226H44.7492V17.71H58.9406Z" fill="white"/>
</svg>
