<svg width="16" height="16" viewBox="0 0 16 16" fill="none" xmlns="http://www.w3.org/2000/svg">
<path d="M3.11499 3.66365L3.10233 3.66894L3.08968 3.67424L3.00317 3.55942L3.01617 3.55412L3.02848 3.54883L3.10199 3.64637L3.11499 3.66365Z" fill="#DBA514"/>
<path d="M10.4425 4.98588L10.4326 4.97306L10.4583 4.96191L10.4678 4.97501L10.4425 4.98588Z" fill="#DBA514"/>
<path d="M0.807036 14.9707L0.363209 15.5621L0.0510254 15.9776H4.29576L4.60795 15.5621L4.94065 15.1192L5.05177 14.9707H0.807036Z" fill="#DBA514"/>
<path d="M0.78952 14.9482L0 15.9994H4.31278L5.1023 14.9482H0.78952ZM0.101211 15.9548L0.824397 14.9928H5.00143L4.27893 15.9548H0.101211Z" fill="#DBA514"/>
<path d="M14.1474 7.0909L14.1194 7.05384L14.145 7.04297L14.1727 7.07975L14.1474 7.0909Z" fill="#1B420B"/>
<path d="M13.0983 15.5621H12.0373L12.2937 15.9037V15.9776H10.6641L10.9756 15.5621L11.4204 14.9707H13.5428L13.0983 15.5621Z" fill="#1B420B"/>
<path d="M12.3085 15.9889H10.6392L11.4119 14.96H13.5681L13.1069 15.5736H12.0626L12.3085 15.9011V15.9889ZM10.6894 15.9666H12.2791V15.9069L12.0124 15.551H13.0901L13.5182 14.982H11.4294L10.6894 15.9666Z" fill="#1B420B"/>
<path d="M15.9706 14.9707V15.9776H12.7869L13.0984 15.5621L13.5429 14.9707H14.132V15.5621H15.2211L15.6656 14.9707H15.9706Z" fill="#1B420B"/>
<path d="M16.0001 15.9994H12.7363L13.5258 14.9482H14.1615V15.5396H15.204L15.6486 14.9482H16.0001V15.9994ZM12.8375 15.9548H15.9416V14.9926H15.6831L15.2386 15.5839H14.103V14.9926H13.5604L12.8375 15.9548Z" fill="#1B420B"/>
<path d="M15.6656 14.9717L15.2211 15.563H14.1601L14.1321 15.5257V14.9717H15.6656Z" fill="#1B420B"/>
<path d="M15.2381 15.5852H14.1429L14.1025 15.5314V14.9492H15.7161L15.2381 15.5852ZM14.1771 15.5406H15.2039L15.6149 14.9938H14.1614V15.5197L14.1771 15.5406Z" fill="#1B420B"/>
<path d="M13.0984 15.5615L12.7869 15.977H12.3489L12.2938 15.9032L12.0374 15.5615H13.0984Z" fill="#1B420B"/>
<path d="M12.804 15.9999H12.3318L11.9868 15.54H13.1487L12.804 15.9999ZM12.366 15.9553H12.7698L13.0482 15.5843H12.088L12.366 15.9553Z" fill="#1B420B"/>
<path d="M14.691 7.79241L14.16 8.49859H14.1319V8.53593L13.6293 9.20532L13.099 9.91151L12.5683 10.6182L12.2937 10.983L12.0373 11.3244L11.5066 12.0306L10.9763 11.3244H9.91456L10.4456 10.6177L10.4552 10.6311V10.6046L10.9756 9.91151L11.5066 9.20477L12.0373 8.49859L12.2937 8.15748L12.5676 7.79241L12.2937 7.42733L12.0373 7.08622L11.5066 6.37949L10.9756 5.6733L10.4552 4.98022V4.95347L10.4456 4.96712L9.91456 4.26038L9.38389 3.5542L8.85287 2.84746L8.61728 2.53395L8.32287 2.14128L7.79185 1.4351L7.47967 1.01931L7.26118 0.728641L6.77905 0.0868365V0.0224609H8.85287L9.38389 0.728641L9.6017 1.01931L9.91456 1.4351L10.4456 2.14128V2.14184L10.4552 2.15494L10.9756 2.84746L11.5066 3.5542L12.0373 4.26038L12.2937 4.60205L12.5676 4.96656V4.96712L13.6293 6.37949L14.1319 7.04944V7.08622H14.16L14.691 7.79241Z" fill="#1B420B"/>
<path d="M11.5067 12.0753L10.9593 11.3463H9.86441L12.5339 7.79196L6.74976 0.0925211V0H8.87041L14.1618 7.04342V7.06404H14.1775L14.725 7.79252L14.1775 8.52099H14.1618V8.54189L11.5067 12.0753ZM9.96528 11.302H10.9935L11.5067 11.9856L14.103 8.53019V8.4764H14.1433L14.6576 7.79252L14.1433 7.10863H14.103V7.0554L8.83588 0.0443096H6.80823V0.0805379L10.4447 4.92097L10.4843 4.86552V4.97392L12.6012 7.79196L10.4843 10.61V10.7184L10.4447 10.6629L9.96528 11.302Z" fill="#1B420B"/>
<path d="M11.5066 12.0304L10.9756 12.7369L10.4552 13.4302L10.4456 13.443L9.91456 14.1495L9.38388 14.856L8.85355 15.5621L8.61727 15.8765L8.54136 15.9777H6.41797L6.73015 15.5621H6.77905V15.4978L7.26117 14.8557L7.79185 14.1495L8.32218 13.443L8.61727 13.0507L8.85286 12.7369L9.38388 12.0304L9.91456 11.3242H10.9763L11.5066 12.0304Z" fill="#1B420B"/>
<path d="M8.55853 16.0005H6.36743L6.71312 15.5407H6.74937V15.4927L9.89753 11.3027H10.9934L11.5402 12.0312L8.55853 16.0005ZM6.46864 15.9559H8.52433L11.4728 12.0309L10.9592 11.347H9.93172L6.80818 15.5042V15.585H6.74732L6.46864 15.9559Z" fill="#1B420B"/>
<path d="M15.9705 0.0224609V1.01931H11.7244L11.5066 0.72892L10.9756 0.0224609H14.132V0.0592472L14.16 0.0224609H15.9705Z" fill="#1B420B"/>
<path d="M15.9854 1.03086H11.716L11.4938 0.7349L10.9504 0.0117188H14.1468V0.0178506L14.1516 0.0117188H15.9854V1.03086ZM11.7331 1.00857H15.956V0.033734H14.1687L14.1178 0.101176V0.033734H11.0014L11.7331 1.00857Z" fill="#1B420B"/>
<path d="M3.10203 3.64648V3.66878L3.10271 3.66934L3.11502 3.66404L3.10203 3.64648ZM0.823053 14.949L0.806641 14.9707H5.05172L5.06813 14.949H0.823053Z" fill="#DBA514"/>
<path d="M10.4454 7.79213L9.91509 8.49831L9.38373 9.20477L8.8616 9.90008L8.85339 9.91123L8.61712 10.2247L8.60241 10.2445L8.32237 10.6174V10.6177L7.79238 11.3239L7.26136 12.03L6.77889 12.6724L6.73034 12.7368L6.20035 13.4427V13.443L5.13865 14.8556L5.06821 14.949H0.823131L0.893227 14.8559L1.26422 14.3623L1.42425 14.1492L1.95458 13.443L2.48526 12.7368L3.0156 12.03L3.1021 11.9158L3.54662 11.3239L4.07763 10.6174L4.60831 9.91123L4.94067 9.46868L5.13865 9.20477L5.66933 8.49831L6.20035 7.79213L5.66933 7.08567L5.13865 6.37921L4.94067 6.11613L4.60763 5.67303L4.07763 4.96684L3.54662 4.26011L3.10245 3.66902L3.1151 3.66372L3.1021 3.64645V3.43911L3.0156 3.55392L2.48526 2.84719L1.95458 2.141L1.42425 1.4351L1.26422 1.22191L1.11172 1.01903L0.893227 0.728085L0.362549 0.0224609H4.60831L4.94067 0.46473L5.13865 0.728085L5.35748 1.01903L5.66933 1.4351L6.20035 2.141L6.73034 2.84719L6.77889 2.91184L7.26136 3.55392L7.79238 4.26011L8.32306 4.96684L8.61712 5.35923L8.85408 5.67303L9.38373 6.37921L9.91509 7.08567L10.4454 7.79213Z" fill="#DBA514"/>
<path d="M8.86148 9.89941L8.85327 9.91056L8.617 10.2244L8.60229 10.2439V10.2664L8.87858 9.89941H8.86148Z" fill="#DBA514"/>
<path d="M3.10189 3.43848V3.64582L3.02837 3.54828L3.01606 3.55357L3.01538 3.55329L3.10189 3.43848Z" fill="#DBA514"/>
<path d="M3.10888 3.66586L3.02613 3.55606L3.01485 3.5608L3.00732 3.55467L3.00972 3.55048L3.10854 3.41895V3.66586H3.10888ZM3.03194 3.5424L3.0952 3.62629V3.45824L3.03194 3.5424Z" fill="#DBA514"/>
</svg>
