<svg width="32" height="32" viewBox="0 0 32 32" fill="none" xmlns="http://www.w3.org/2000/svg">
<path d="M6.22997 7.32728L6.20467 7.33787L6.17936 7.34846L6.00635 7.11884L6.03233 7.10825L6.05695 7.09766L6.20398 7.29273L6.22997 7.32728Z" fill="#DBA514"/>
<path d="M20.8851 9.97078L20.8652 9.94515L20.9165 9.92285L20.9357 9.94905L20.8851 9.97078Z" fill="#DBA514"/>
<path d="M1.61406 29.9404L0.726415 31.1231L0.102051 31.9541H8.59148L9.21585 31.1231L9.88124 30.2375L10.1035 29.9404H1.61406Z" fill="#DBA514"/>
<path d="M1.57903 29.8955L0 31.9978H8.62552L10.2046 29.8955H1.57903ZM0.202422 31.9087L1.64879 29.9847H10.0028L8.55782 31.9087H0.202422Z" fill="#DBA514"/>
<path d="M28.2946 14.1808L28.2385 14.1067L28.2898 14.085L28.3452 14.1585L28.2946 14.1808Z" fill="#1B420B"/>
<path d="M26.1965 31.1231H24.0745L24.5874 31.8064V31.9541H21.3281L21.9511 31.1231L22.8408 29.9404H27.0855L26.1965 31.1231Z" fill="#1B420B"/>
<path d="M24.6169 31.9767H21.2783L22.8238 29.9189H27.1363L26.2137 31.1462H24.1252L24.6169 31.8011V31.9767ZM21.3788 31.9321H24.5581V31.8128L24.0247 31.1011H26.1802L27.0364 29.963H22.8587L21.3788 31.9321Z" fill="#1B420B"/>
<path d="M31.9409 29.9404V31.9541H25.5735L26.1965 31.1231L27.0855 29.9404H28.2638V31.1231H30.4419L31.3309 29.9404H31.9409Z" fill="#1B420B"/>
<path d="M31.9999 31.9978H25.4724L27.0514 29.8955H28.3227V31.0782H30.4078L31.2968 29.8955H31.9999V31.9978ZM25.6748 31.9087H31.8829V29.9841H31.3659L30.4769 31.1668H28.2058V29.9841H27.1205L25.6748 31.9087Z" fill="#1B420B"/>
<path d="M31.331 29.9424L30.442 31.1251H28.32L28.2639 31.0504V29.9424H31.331Z" fill="#1B420B"/>
<path d="M30.4759 31.1693H28.2855L28.2048 31.0618V29.8975H31.432L30.4759 31.1693ZM28.3539 31.0802H30.4075L31.2295 29.9866H28.3225V31.0384L28.3539 31.0802Z" fill="#1B420B"/>
<path d="M26.1967 31.1221L25.5737 31.9531H24.6977L24.5876 31.8054L24.0747 31.1221H26.1967Z" fill="#1B420B"/>
<path d="M25.6081 31.9987H24.6636L23.9736 31.0791H26.2974L25.6081 31.9987ZM24.732 31.9096H25.5397L26.0963 31.1677H24.1761L24.732 31.9096Z" fill="#1B420B"/>
<path d="M29.3819 15.5843L28.3199 16.9967H28.2638V17.0713L27.2585 18.4101L26.1979 19.8224L25.1365 21.2359L24.5874 21.9654L24.0745 22.6482L23.0131 24.0605L21.9525 22.6482H19.8291L20.8911 21.2347L20.9103 21.2615V21.2085L21.9511 19.8224L23.0131 18.409L24.0745 16.9967L24.5874 16.3145L25.1352 15.5843L24.5874 14.8542L24.0745 14.172L23.0131 12.7586L21.9511 11.3463L20.9103 9.96014V9.90664L20.8911 9.93395L19.8291 8.52051L18.7677 7.10819L17.7057 5.69476L17.2345 5.06774L16.6457 4.28244L15.5837 2.87012L14.9593 2.03855L14.5223 1.45724L13.5581 0.173669V0.0449219H17.7057L18.7677 1.45724L19.2034 2.03855L19.8291 2.87012L20.8911 4.28244V4.28355L20.9103 4.30975L21.9511 5.69476L23.0131 7.10819L24.0745 8.52051L24.5874 9.20382L25.1352 9.93283V9.93395L27.2585 12.7586L28.2638 14.0984V14.172H28.3199L29.3819 15.5843Z" fill="#1B420B"/>
<path d="M23.0134 24.1499L21.9185 22.6919H19.7288L25.0677 15.5834L13.4995 0.185037V0H17.7408L28.3235 14.0864V14.1277H28.355L29.4499 15.5846L28.355 17.0415H28.3235V17.0833L23.0134 24.1499ZM19.9305 22.6032H21.9869L23.0134 23.9704L28.2059 17.0599V16.9523H28.2866L29.3151 15.5846L28.2866 14.2168H28.2059V14.1104L17.6717 0.0886164H13.6165V0.161071L20.8893 9.84165L20.9686 9.73074V9.94755L25.2024 15.5834L20.9686 21.2194V21.4362L20.8893 21.3252L19.9305 22.6032Z" fill="#1B420B"/>
<path d="M23.0131 24.0608L21.9511 25.4736L20.9103 26.8603L20.8911 26.886L19.8291 28.2988L18.7677 29.7117L17.7071 31.124L17.2345 31.7527L17.0827 31.955H12.8359L13.4603 31.124H13.5581V30.9953L14.5223 29.7111L15.5837 28.2988L16.6443 26.886L17.2345 26.1012L17.7057 25.4736L18.7677 24.0608L19.8291 22.6484H21.9525L23.0131 24.0608Z" fill="#1B420B"/>
<path d="M17.117 32.0007H12.7349L13.4262 31.0811H13.4987V30.9852L19.795 22.6055H21.9868L23.0803 24.0624L17.117 32.0007ZM12.9373 31.9115H17.0486L22.9456 24.0618L21.9184 22.6941H19.8634L13.6164 31.008V31.1697H13.4946L12.9373 31.9115Z" fill="#1B420B"/>
<path d="M31.941 0.0449219V2.03855H23.4488L23.0132 1.4578L21.9512 0.0449219H28.2639V0.118492L28.32 0.0449219H31.941Z" fill="#1B420B"/>
<path d="M31.9707 2.06166H23.432L22.9875 1.46976L21.9009 0.0234375H28.2936V0.0357009L28.3032 0.0234375H31.9707V2.06166ZM23.4662 2.01707H31.9119V0.0674668H28.3374L28.2355 0.202347V0.0674668H22.0028L23.4662 2.01707Z" fill="#1B420B"/>
<path d="M6.20403 7.29297V7.33756L6.2054 7.33867L6.23002 7.32808L6.20403 7.29297ZM1.64611 29.8973L1.61328 29.9408H10.1034L10.1362 29.8973H1.64611Z" fill="#DBA514"/>
<path d="M20.8907 15.5838L19.8301 16.9961L18.7674 18.409L17.7231 19.7996L17.7067 19.8219L17.2342 20.4489L17.2047 20.4884L16.6447 21.2342V21.2347L15.5847 22.647L14.5226 24.0594L13.5577 25.3441L13.4606 25.4728L12.4006 26.8846V26.8851L10.2772 29.7103L10.1364 29.897H1.64626L1.78645 29.7109L2.52844 28.7238L2.84848 28.2974L3.90915 26.8851L4.9705 25.4728L6.03116 24.0594L6.20418 23.8309L7.0932 22.647L8.15523 21.2342L9.21658 19.8219L9.88129 18.9368L10.2772 18.409L11.3386 16.9961L12.4006 15.5838L11.3386 14.1709L10.2772 12.758L9.88129 12.2319L9.21522 11.3457L8.15523 9.93339L7.0932 8.51995L6.20487 7.33782L6.23017 7.32723L6.20418 7.29267V6.87801L6.03116 7.10763L4.9705 5.6942L3.90915 4.28188L2.84848 2.87012L2.52844 2.44375L2.22343 2.038L1.78645 1.45613L0.725098 0.0449219H9.21658L9.88129 0.929433L10.2772 1.45613L10.7149 2.038L11.3386 2.87012L12.4006 4.28188L13.4606 5.6942L13.5577 5.8235L14.5226 7.10763L15.5847 8.51995L16.646 9.93339L17.2342 10.7181L17.7081 11.3457L18.7674 12.758L19.8301 14.1709L20.8907 15.5838Z" fill="#DBA514"/>
<path d="M17.723 19.7988L17.7065 19.8211L17.234 20.4487L17.2046 20.4877V20.5329L17.7571 19.7988H17.723Z" fill="#DBA514"/>
<path d="M6.20378 6.87695V7.29162L6.05675 7.09655L6.03213 7.10714L6.03076 7.10658L6.20378 6.87695Z" fill="#DBA514"/>
<path d="M6.21775 7.3317L6.05226 7.11211L6.02969 7.12158L6.01465 7.10932L6.01943 7.10096L6.21707 6.83789V7.3317H6.21775ZM6.06388 7.0848L6.1904 7.25256V6.91648L6.06388 7.0848Z" fill="#DBA514"/>
</svg>
