<svg width="468" height="575" viewBox="0 0 468 575" fill="none" xmlns="http://www.w3.org/2000/svg">
<path d="M91.1 131.46L90.73 131.65L90.36 131.84L87.83 127.72L88.21 127.53L88.57 127.34L90.72 130.84L91.1 131.46Z" fill="#DBA514"/>
<path d="M305.4 178.89L305.11 178.43L305.86 178.03L306.14 178.5L305.4 178.89Z" fill="#DBA514"/>
<path d="M23.6 537.2L10.62 558.42L1.48999 573.33H125.63L134.76 558.42L144.49 542.53L147.74 537.2H23.6Z" fill="#DBA514"/>
<path d="M23.09 536.41L0 574.13H126.13L149.22 536.41H23.09ZM2.95999 572.53L24.11 538.01H146.27L125.14 572.53H2.95999Z" fill="#DBA514"/>
<path d="M413.75 254.47L412.93 253.14L413.68 252.75L414.49 254.07L413.75 254.47Z" fill="#1B420B"/>
<path d="M383.07 558.419H352.04L359.54 570.679V573.329H311.88L320.99 558.419L334 537.199H396.07L383.07 558.419Z" fill="#1B420B"/>
<path d="M359.97 573.73H311.15L333.75 536.81H396.81L383.32 558.83H352.78L359.97 570.58V573.73ZM312.62 572.93H359.11V570.79L351.31 558.02H382.83L395.35 537.6H334.26L312.62 572.93Z" fill="#1B420B"/>
<path d="M467.07 537.2V573.33H373.96L383.07 558.42L396.07 537.2H413.3V558.42H445.15L458.15 537.2H467.07Z" fill="#1B420B"/>
<path d="M467.93 574.13H372.48L395.57 536.41H414.16V557.63H444.65L457.65 536.41H467.93V574.13ZM375.44 572.53H466.22V538H458.66L445.66 559.22H412.45V538H396.58L375.44 572.53Z" fill="#1B420B"/>
<path d="M458.15 537.2L445.15 558.42H414.12L413.3 557.08V537.2H458.15Z" fill="#1B420B"/>
<path d="M445.65 559.22H413.62L412.44 557.29V536.4H459.63L445.65 559.22ZM414.62 557.62H444.65L456.67 538H414.16V556.87L414.62 557.62Z" fill="#1B420B"/>
<path d="M383.07 558.42L373.96 573.33H361.15L359.54 570.68L352.04 558.42H383.07Z" fill="#1B420B"/>
<path d="M374.46 574.13H360.65L350.56 557.63H384.54L374.46 574.13ZM361.65 572.53H373.46L381.6 559.22H353.52L361.65 572.53Z" fill="#1B420B"/>
<path d="M429.65 279.61L414.12 304.95H413.3V306.29L398.6 330.31L383.09 355.65L367.57 381.01L359.54 394.1L352.04 406.35L336.52 431.69L321.01 406.35H289.96L305.49 380.99L305.77 381.47V380.52L320.99 355.65L336.52 330.29L352.04 304.95L359.54 292.71L367.55 279.61L359.54 266.51L352.04 254.27L336.52 228.91L320.99 203.57L305.77 178.7V177.74L305.49 178.23L289.96 152.87L274.44 127.53L258.91 102.17L252.02 90.9198L243.41 76.8298L227.88 51.4898L218.75 36.5698L212.36 26.1398L198.26 3.1098V0.799805H258.91L274.44 26.1398L280.81 36.5698L289.96 51.4898L305.49 76.8298V76.8498L305.77 77.3198L320.99 102.17L336.52 127.53L352.04 152.87L359.54 165.13L367.55 178.21V178.23L398.6 228.91L413.3 252.95V254.27H414.12L429.65 279.61Z" fill="#1B420B"/>
<path d="M336.52 433.3L320.51 407.14H288.49L366.56 279.6L197.4 3.31995V0H259.42L414.17 252.74V253.48H414.63L430.64 279.62L414.63 305.76H414.17V306.51L336.52 433.3ZM291.44 405.55H321.51L336.52 430.08L412.45 306.09V304.16H413.63L428.67 279.62L413.63 255.08H412.45V253.17L258.41 1.58997H199.11V2.88995L305.46 176.58L306.62 174.59V178.48L368.53 279.6L306.62 380.72V384.61L305.46 382.62L291.44 405.55Z" fill="#1B420B"/>
<path d="M336.52 431.69L320.99 457.04L305.77 481.92L305.49 482.38L289.96 507.73L274.44 533.08L258.93 558.42L252.02 569.7L249.8 573.33H187.7L196.83 558.42H198.26V556.11L212.36 533.07L227.88 507.73L243.39 482.38L252.02 468.3L258.91 457.04L274.44 431.69L289.96 406.35H321.01L336.52 431.69Z" fill="#1B420B"/>
<path d="M250.3 574.13H186.22L196.33 557.63H197.39V555.91L289.46 405.56H321.51L337.5 431.7L250.3 574.13ZM189.18 572.53H249.3L335.53 431.69L320.51 407.15H290.46L199.11 556.32V559.22H197.33L189.18 572.53Z" fill="#1B420B"/>
<path d="M467.07 0.800781V36.5707H342.89L336.52 26.1508L320.99 0.800781H413.3V2.12079L414.12 0.800781H467.07Z" fill="#1B420B"/>
<path d="M467.5 36.9704H342.64L336.14 26.3504L320.25 0.400391H413.73V0.620422L413.87 0.400391H467.5V36.9704ZM343.14 36.1704H466.64V1.19037H414.37L412.88 3.61041V1.19037H321.74L343.14 36.1704Z" fill="#1B420B"/>
<path d="M90.72 130.84V131.64L90.74 131.66L91.1 131.47L90.72 130.84ZM24.07 536.41L23.59 537.19H147.74L148.22 536.41H24.07Z" fill="#DBA514"/>
<path d="M305.48 279.6L289.97 304.94L274.43 330.29L259.16 355.24L258.92 355.64L252.01 366.89L251.58 367.6L243.39 380.98V380.99L227.89 406.33L212.36 431.67L198.25 454.72L196.83 457.03L181.33 482.36V482.37L150.28 533.06L148.22 536.41H24.07L26.12 533.07L36.97 515.36L41.65 507.71L57.16 482.37L72.68 457.03L88.19 431.67L90.72 427.57L103.72 406.33L119.25 380.98L134.77 355.64L144.49 339.76L150.28 330.29L165.8 304.94L181.33 279.6L165.8 254.25L150.28 228.9L144.49 219.46L134.75 203.56L119.25 178.22L103.72 152.86L90.73 131.65L91.1 131.46L90.72 130.84V123.4L88.19 127.52L72.68 102.16L57.16 76.8198L41.65 51.4898L36.97 43.8398L32.51 36.5598L26.12 26.1198L10.6 0.799805H134.77L144.49 16.6698L150.28 26.1198L156.68 36.5598L165.8 51.4898L181.33 76.8198L196.83 102.16L198.25 104.48L212.36 127.52L227.89 152.86L243.41 178.22L252.01 192.3L258.94 203.56L274.43 228.9L289.97 254.25L305.48 279.6Z" fill="#DBA514"/>
<path d="M259.16 355.24L258.92 355.64L252.01 366.9L251.58 367.6V368.41L259.66 355.24H259.16Z" fill="#DBA514"/>
<path d="M90.7199 123.399V130.839L88.5699 127.339L88.2099 127.529L88.1899 127.519L90.7199 123.399Z" fill="#DBA514"/>
<path d="M90.9199 131.549L88.4999 127.609L88.1699 127.779L87.95 127.56L88.0199 127.409L90.9099 122.689V131.549H90.9199ZM88.6699 127.12L90.5199 130.129V124.099L88.6699 127.12Z" fill="#DBA514"/>
</svg>
